<svg xmlns="http://www.w3.org/2000/svg" version="1.1" xmlns:xlink="http://www.w3.org/1999/xlink" xmlns:svgjs="http://svgjs.dev/svgjs" width="2000" height="2250" viewBox="0 0 2000 2250"><g transform="matrix(1,0,0,1,0.0005875000000514774,0)"><svg viewBox="0 0 320 360" data-background-color="#ffffff" preserveAspectRatio="xMidYMid meet" height="2250" width="2000" xmlns="http://www.w3.org/2000/svg" xmlns:xlink="http://www.w3.org/1999/xlink"><g id="tight-bounds" transform="matrix(1,0,0,1,-0.000046999999995023245,0)"><svg viewBox="0 0 320 360" height="360" width="320"><rect width="320.000141" height="360" fill="#000000" mask="url(#8b40b1af-1abd-416b-9f8b-fed708dc168a)" data-fill-palette-color="tertiary"></rect><g><svg></svg></g><g><svg viewBox="0 0 320 360" height="360" width="320"><g><path transform="translate(-74.99272,-51.79039) scale(4.65793,4.65793)" d="M20.6 59.9l0.8 1-0.4-1.3c-0.1-0.6-0.8 0.1-0.4 0.3M21.5 59.3c0.3 0.5 0.6 1 0.6 1.5 0 0.7 0.6 1 1.1 1.2-0.7-0.8-1.1-3-1.7-2.7M59.9 16.9c1.7 0 3.3-0.2 5.1 0.2 4.4 1.1 8.1 3.3 10.6 6.4l7 11.2c0.3 2.8 0.9 5.9 0.8 9.3 0.7 0 0.6-1 1.4-1.2-0.8 2-1.2 4.5-1.4 7.4-0.5-1.6 0-4 0.1-5.3-0.7 1.1-1.1 0.3-1.1-0.2 0.1-0.8-0.3-0.7-0.6-1-1.1-1-1.8-2.1-2.6-3.8 0.5-1.3 0.6-3.2-1-4.2-0.5-0.3-1.1-0.8-1.4-1.6-0.4-1.1-1.1-2.4-0.9-4.1 0.1-0.5-1.5 1.1-2.4 0.4-3.9-2.7-7.8-5.8-12.5-8.4-2.5 0-4.3-0.9-5.2-2-0.8-1-0.2-2.3 1-2.4 0.7 0 1.5-0.2 2.1 0.2 0.1-0.4 0.5-0.9 1-0.9M50 14.6l0.2 0.1c1 0.2 1.5 1.6 2.6 1.1 0 0.7 0.1 1.4-0.1 1.9-0.3 0.8-1.2 0.8-1.9 0.8-6.7-0.4-10.6 2.4-14.7 4.8-1.1 0.7-2.3 1.2-3.2 2.1-4.3 4-9 7.7-10.1 15.1l-0.9 8.2c-0.1 0.9-1.1 1.8-0.9 2.9l0.7 4.9c-0.7-0.7-1.1 0.2-0.9 0.6 0.1 0.3 0.5 1.3 1.1 0.4 0.8 1.5 1.6 4.4 2.7 5.7 3.4 4 7.8 7.6 11.4 11.2 0.9-0.2 1.6-0.2 1.8-0.8 0.3 0.6-0.3 1.2-0.8 1.3 1.6 1 3.4 1.9 5.8 2.1 3.1 0.2 6 0.7 8.7 1.4 1.4-0.4 2.8-0.6 4.3-0.7 0.5 0 0.8-0.8 1.4-1l0.1-1c0.6 0.9 0.5-0.3 0.1-0.9 0.7 0.6 0.9 1.1 1.2 1.5 0-0.3 0.8-1.4 0.8-0.1l0.2-1.3c0.3-0.2 0.4 1.1 0.7 0.2 0.3-0.9 0.9-0.2 1.5-0.5-0.2 0.4-0.1 1.2 0.6 0.7l0.8-0.7c0.5 1.2 1.3 0.7 1.7 0.5 4.4-2.8 8.8-6.1 13-9.4l-0.1 1.3 0.5-1.6c0.5 0.5 0.9 0.1 1.1-0.2 0.6-1 1.4-2 2.7-2.9-1.6 4.3-3.5 7.7-5.9 10.5l-1 1.2c0 0.7-0.2 1.6-1 1.7-0.4 0.1-1.2-0.2-1.8 0.4-0.3 0.4 0.7 1.2-0.1 0.6-0.7-0.5-1.4 0-2.2 0.2-0.6 0.2 0.4 0.8 0.6 1.2 0.2 0.4 0.4 0.8 0.3 1.3l-1.1-1.2c-1.3 0.7-2.1 2-3.2 3-0.5 0.4-0.3 1.1-0.3 1.7-0.7 0-1.5-0.2-1.9 0.2-0.3 0.4-0.2 1-0.2 1.6-1-0.1-1.1-1.6-2-1.3-0.9 0.2-1.9 0.3-2.7 0.8 0.6 1.2-1 0.5-0.8 0.7-1.5-0.9-2.8-1.6-4.4-1-3.4-1.1-7.6-0.6-10.7-0.2 0-0.5 0.1-1-0.1-1.1-0.2 0.5-0.8 0.3-0.7 0.3-1.9-1.3-3.8-2.1-5.8-3.2-1.8 0.2-3.5-0.7-4-1.2-1.4-1.3-3-0.6-4.3-0.9-2.8-0.7-3.8-3.6-4.1-5.6-0.2-1-1-1.4-1.3-1.3-1.3-4.2-3.3-8-4.9-11.9-0.4-1-0.3-2-0.3-3.1 0.5 0.2 1 0.1 0.9-0.6-0.5-3.3-1.7-5.8-3-8.2 0.7-3.4 0.8-7.4 2.4-10.4 1.4-2.7 4-4.1 5.8-6.4 0.6-0.8 0.6-1.9 1.2-2.6 2-2 4-4.1 6.2-5.9 1-0.8 2.2 0 3.7-0.3 0.5-1.8 2.5-3.4 4.4-2.9 0.8 0.2 2.4-1.9 2.9-2.1 0.8-0.3 0.4 0.8 0.4 1.5 1.9-1.5 4.5-2.3 6.9-3.2" fill="#000000" fill-rule="nonzero" stroke="none" stroke-width="1" stroke-linecap="butt" stroke-linejoin="miter" stroke-miterlimit="10" stroke-dasharray="" stroke-dashoffset="0" font-family="none" font-weight="none" font-size="none" text-anchor="none" style="mix-blend-mode: normal" data-fill-palette-color="tertiary"></path></g><g transform="matrix(1,0,0,1,64,144.5339405760276)"><svg viewBox="0 0 192 70.93211884794482" height="70.93211884794482" width="192"><g><svg viewBox="0 0 192 70.93211884794482" height="70.93211884794482" width="192"><g><svg viewBox="0 0 192 70.93211884794482" height="70.93211884794482" width="192"><g transform="matrix(1,0,0,1,0,43.02524905777523)"><svg viewBox="0 0 192 27.90686979016959" height="27.90686979016959" width="192"><g id="textblocktransform"><svg viewBox="0 0 192 27.90686979016959" height="27.90686979016959" width="192" id="textblock"><g><svg viewBox="0 0 192 27.90686979016959" height="27.90686979016959" width="192"><g transform="matrix(1,0,0,1,0,0)"><svg width="192" viewBox="2.54 -36.55 254.79 37.04" height="27.90686979016959" data-palette-color="url(#509df1b5-6cd6-42bf-b03f-955333fb8d81)"></svg></g></svg></g></svg></g></svg></g><g transform="matrix(1,0,0,1,53.25990473207951,0)"><svg viewBox="0 0 85.48019053584098 38.95296699051452" height="38.95296699051452" width="85.48019053584098"><g><svg xmlns="http://www.w3.org/2000/svg" xmlns:xlink="http://www.w3.org/1999/xlink" version="1.1" x="0" y="0" viewBox="5 29.49387475885969 90 41.012625348283166" enable-background="new 0 0 100 100" xml:space="preserve" height="38.95296699051452" width="85.48019053584098" class="icon-icon-0" data-fill-palette-color="accent" id="icon-0"></svg></g></svg></g><g></g></svg></g></svg></g></svg></g></svg></g><defs></defs><mask id="821fcfad-3aee-4c5c-a5a0-0a39134af583"><g id="SvgjsG4265"><svg viewBox="0 0 320 360" height="360" width="320"><g><svg></svg></g><g><svg viewBox="0 0 320 360" height="360" width="320"><g><path transform="translate(-74.99272,-51.79039) scale(4.65793,4.65793)" d="M20.6 59.9l0.8 1-0.4-1.3c-0.1-0.6-0.8 0.1-0.4 0.3M21.5 59.3c0.3 0.5 0.6 1 0.6 1.5 0 0.7 0.6 1 1.1 1.2-0.7-0.8-1.1-3-1.7-2.7M59.9 16.9c1.7 0 3.3-0.2 5.1 0.2 4.4 1.1 8.1 3.3 10.6 6.4l7 11.2c0.3 2.8 0.9 5.9 0.8 9.3 0.7 0 0.6-1 1.4-1.2-0.8 2-1.2 4.5-1.4 7.4-0.5-1.6 0-4 0.1-5.3-0.7 1.1-1.1 0.3-1.1-0.2 0.1-0.8-0.3-0.7-0.6-1-1.1-1-1.8-2.1-2.6-3.8 0.5-1.3 0.6-3.2-1-4.2-0.5-0.3-1.1-0.8-1.4-1.6-0.4-1.1-1.1-2.4-0.9-4.1 0.1-0.5-1.5 1.1-2.4 0.4-3.9-2.7-7.8-5.8-12.5-8.4-2.5 0-4.3-0.9-5.2-2-0.8-1-0.2-2.3 1-2.4 0.7 0 1.5-0.2 2.1 0.2 0.1-0.4 0.5-0.9 1-0.9M50 14.6l0.2 0.1c1 0.2 1.5 1.6 2.6 1.1 0 0.7 0.1 1.4-0.1 1.9-0.3 0.8-1.2 0.8-1.9 0.8-6.7-0.4-10.6 2.4-14.7 4.8-1.1 0.7-2.3 1.2-3.2 2.1-4.3 4-9 7.7-10.1 15.1l-0.9 8.2c-0.1 0.9-1.1 1.8-0.9 2.9l0.7 4.9c-0.7-0.7-1.1 0.2-0.9 0.6 0.1 0.3 0.5 1.3 1.1 0.4 0.8 1.5 1.6 4.4 2.7 5.7 3.4 4 7.8 7.6 11.4 11.2 0.9-0.2 1.6-0.2 1.8-0.8 0.3 0.6-0.3 1.2-0.8 1.3 1.6 1 3.4 1.9 5.8 2.1 3.1 0.2 6 0.7 8.7 1.4 1.4-0.4 2.8-0.6 4.3-0.7 0.5 0 0.8-0.8 1.4-1l0.1-1c0.6 0.9 0.5-0.3 0.1-0.9 0.7 0.6 0.9 1.1 1.2 1.5 0-0.3 0.8-1.4 0.8-0.1l0.2-1.3c0.3-0.2 0.4 1.1 0.7 0.2 0.3-0.9 0.9-0.2 1.5-0.5-0.2 0.4-0.1 1.2 0.6 0.7l0.8-0.7c0.5 1.2 1.3 0.7 1.7 0.5 4.4-2.8 8.8-6.1 13-9.4l-0.1 1.3 0.5-1.6c0.5 0.5 0.9 0.1 1.1-0.2 0.6-1 1.4-2 2.7-2.9-1.6 4.3-3.5 7.7-5.9 10.5l-1 1.2c0 0.7-0.2 1.6-1 1.7-0.4 0.1-1.2-0.2-1.8 0.4-0.3 0.4 0.7 1.2-0.1 0.6-0.7-0.5-1.4 0-2.2 0.2-0.6 0.2 0.4 0.8 0.6 1.2 0.2 0.4 0.4 0.8 0.3 1.3l-1.1-1.2c-1.3 0.7-2.1 2-3.2 3-0.5 0.4-0.3 1.1-0.3 1.7-0.7 0-1.5-0.2-1.9 0.2-0.3 0.4-0.2 1-0.2 1.6-1-0.1-1.1-1.6-2-1.3-0.9 0.2-1.9 0.3-2.7 0.8 0.6 1.2-1 0.5-0.8 0.7-1.5-0.9-2.8-1.6-4.4-1-3.4-1.1-7.6-0.6-10.7-0.2 0-0.5 0.1-1-0.1-1.1-0.2 0.5-0.8 0.3-0.7 0.3-1.9-1.3-3.8-2.1-5.8-3.2-1.8 0.2-3.5-0.7-4-1.2-1.4-1.3-3-0.6-4.3-0.9-2.8-0.7-3.8-3.6-4.1-5.6-0.2-1-1-1.4-1.3-1.3-1.3-4.2-3.3-8-4.9-11.9-0.4-1-0.3-2-0.3-3.1 0.5 0.2 1 0.1 0.9-0.6-0.5-3.3-1.7-5.8-3-8.2 0.7-3.4 0.8-7.4 2.4-10.4 1.4-2.7 4-4.1 5.8-6.4 0.6-0.8 0.6-1.9 1.2-2.6 2-2 4-4.1 6.2-5.9 1-0.8 2.2 0 3.7-0.3 0.5-1.8 2.5-3.4 4.4-2.9 0.8 0.2 2.4-1.9 2.9-2.1 0.8-0.3 0.4 0.8 0.4 1.5 1.9-1.5 4.5-2.3 6.9-3.2" fill="black" fill-rule="nonzero" stroke="none" stroke-width="1" stroke-linecap="butt" stroke-linejoin="miter" stroke-miterlimit="10" stroke-dasharray="" stroke-dashoffset="0" font-family="none" font-weight="none" font-size="none" text-anchor="none" style="mix-blend-mode: normal"></path></g><g transform="matrix(1,0,0,1,64,144.5339405760276)"><svg viewBox="0 0 192 70.93211884794482" height="70.93211884794482" width="192"><g><svg viewBox="0 0 192 70.93211884794482" height="70.93211884794482" width="192"><g><svg viewBox="0 0 192 70.93211884794482" height="70.93211884794482" width="192"><g transform="matrix(1,0,0,1,0,43.02524905777523)"><svg viewBox="0 0 192 27.90686979016959" height="27.90686979016959" width="192"><g id="SvgjsG4264"><svg viewBox="0 0 192 27.90686979016959" height="27.90686979016959" width="192" id="SvgjsSvg4263"><g><svg viewBox="0 0 192 27.90686979016959" height="27.90686979016959" width="192"><g transform="matrix(1,0,0,1,0,0)"><svg width="192" viewBox="2.54 -36.55 254.79 37.04" height="27.90686979016959" data-palette-color="url(#509df1b5-6cd6-42bf-b03f-955333fb8d81)"><path d="M35.79-16.6L35.79 0 29.15 0 29.15-16.6Q29.15-17.29 28.89-17.9 28.64-18.51 28.17-18.97 27.71-19.43 27.1-19.69 26.49-19.95 25.81-19.95L25.81-19.95Q25.12-19.95 24.52-19.69 23.93-19.43 23.47-18.97 23.02-18.51 22.77-17.9 22.51-17.29 22.51-16.6L22.51-16.6 22.51 0 15.84 0 15.84-16.6Q15.84-17.29 15.59-17.9 15.33-18.51 14.87-18.97 14.4-19.43 13.79-19.69 13.18-19.95 12.5-19.95L12.5-19.95Q11.82-19.95 11.22-19.69 10.62-19.43 10.17-18.97 9.72-18.51 9.46-17.9 9.2-17.29 9.2-16.6L9.2-16.6 9.2 0 2.54 0 2.54-26.15 4.15-26.15 5.96-24.15Q7.35-25.32 9.02-25.96 10.69-26.61 12.5-26.61L12.5-26.61Q14.33-26.61 16.08-25.93 17.82-25.24 19.14-23.56L19.14-23.56Q19.75-24.39 20.53-24.98 21.31-25.56 22.18-25.93 23.05-26.29 23.97-26.45 24.9-26.61 25.81-26.61L25.81-26.61Q27.88-26.61 29.7-25.83 31.52-25.05 32.87-23.69 34.23-22.34 35.01-20.51 35.79-18.68 35.79-16.6L35.79-16.6ZM65.92-13.31L65.92-13.31Q65.92-10.38 64.87-7.85 63.82-5.32 62.01-3.48 60.2-1.64 57.77-0.57 55.34 0.49 52.56 0.49L52.56 0.49Q49.8 0.49 47.37-0.57 44.94-1.64 43.12-3.48 41.31-5.32 40.26-7.85 39.21-10.38 39.21-13.31L39.21-13.31Q39.21-16.28 40.26-18.82 41.31-21.36 43.12-23.21 44.94-25.05 47.37-26.1 49.8-27.15 52.56-27.15L52.56-27.15Q55.34-27.15 57.77-26.16 60.2-25.17 62.01-23.35 63.82-21.53 64.87-18.98 65.92-16.43 65.92-13.31ZM59.2-13.31L59.2-13.31Q59.2-14.92 58.68-16.22 58.15-17.53 57.25-18.47 56.35-19.41 55.14-19.91 53.93-20.41 52.56-20.41L52.56-20.41Q51.19-20.41 49.99-19.91 48.78-19.41 47.89-18.47 46.99-17.53 46.48-16.22 45.97-14.92 45.97-13.31L45.97-13.31Q45.97-11.79 46.48-10.5 46.99-9.2 47.89-8.25 48.78-7.3 49.99-6.75 51.19-6.2 52.56-6.2L52.56-6.2Q53.93-6.2 55.14-6.71 56.35-7.23 57.25-8.15 58.15-9.08 58.68-10.4 59.2-11.72 59.2-13.31ZM94.87-13.31L94.87-13.31Q94.87-10.38 93.82-7.85 92.77-5.32 90.96-3.48 89.16-1.64 86.73-0.57 84.3 0.49 81.51 0.49L81.51 0.49Q78.75 0.49 76.33-0.57 73.9-1.64 72.08-3.48 70.26-5.32 69.21-7.85 68.16-10.38 68.16-13.31L68.16-13.31Q68.16-16.28 69.21-18.82 70.26-21.36 72.08-23.21 73.9-25.05 76.33-26.1 78.75-27.15 81.51-27.15L81.51-27.15Q84.3-27.15 86.73-26.16 89.16-25.17 90.96-23.35 92.77-21.53 93.82-18.98 94.87-16.43 94.87-13.31ZM88.15-13.31L88.15-13.31Q88.15-14.92 87.63-16.22 87.1-17.53 86.2-18.47 85.3-19.41 84.09-19.91 82.88-20.41 81.51-20.41L81.51-20.41Q80.15-20.41 78.94-19.91 77.73-19.41 76.84-18.47 75.95-17.53 75.43-16.22 74.92-14.92 74.92-13.31L74.92-13.31Q74.92-11.79 75.43-10.5 75.95-9.2 76.84-8.25 77.73-7.3 78.94-6.75 80.15-6.2 81.51-6.2L81.51-6.2Q82.88-6.2 84.09-6.71 85.3-7.23 86.2-8.15 87.1-9.08 87.63-10.4 88.15-11.72 88.15-13.31ZM105.22-14.94L105.22 0 98.55 0 98.55-26.15 100.16-26.15 102.36-23.61Q103.97-25.07 106.01-25.87 108.05-26.66 110.27-26.66L110.27-26.66Q112.66-26.66 114.79-25.74 116.91-24.83 118.5-23.23 120.09-21.63 121-19.49 121.92-17.36 121.92-14.94L121.92-14.94 121.92 0 115.25 0 115.25-14.94Q115.25-15.97 114.86-16.88 114.47-17.8 113.79-18.48 113.1-19.17 112.2-19.56 111.3-19.95 110.27-19.95L110.27-19.95Q109.22-19.95 108.29-19.56 107.37-19.17 106.68-18.48 106-17.8 105.61-16.88 105.22-15.97 105.22-14.94L105.22-14.94ZM152.63-13.31L152.63-13.31Q152.63-10.23 151.58-7.69 150.53-5.15 148.72-3.33 146.91-1.51 144.48-0.51 142.06 0.49 139.27 0.49L139.27 0.49Q136.51 0.49 134.08-0.54 131.66-1.56 129.84-3.39 128.02-5.22 126.97-7.75 125.92-10.28 125.92-13.31L125.92-13.31 125.92-36.55 132.61-36.55 132.61-24.34Q133.14-25.02 133.91-25.56 134.68-26.1 135.57-26.44 136.46-26.78 137.42-26.97 138.37-27.15 139.27-27.15L139.27-27.15Q142.06-27.15 144.48-26.11 146.91-25.07 148.72-23.22 150.53-21.36 151.58-18.84 152.63-16.31 152.63-13.31ZM145.91-13.31L145.91-13.31Q145.91-14.82 145.39-16.13 144.86-17.43 143.96-18.38 143.06-19.34 141.85-19.87 140.64-20.41 139.27-20.41L139.27-20.41Q137.91-20.41 136.7-19.81 135.49-19.21 134.58-18.23 133.68-17.24 133.17-15.95 132.66-14.67 132.66-13.31L132.66-13.31Q132.66-11.79 133.17-10.5 133.68-9.2 134.58-8.25 135.49-7.3 136.7-6.75 137.91-6.2 139.27-6.2L139.27-6.2Q140.64-6.2 141.85-6.75 143.06-7.3 143.96-8.25 144.86-9.2 145.39-10.5 145.91-11.79 145.91-13.31ZM162.98-14.4L162.98 0 156.31 0 156.31-26.15 157.92-26.15 160.12-23.05Q161.73-24.51 163.78-25.31 165.83-26.1 168.03-26.1L168.03-26.1 173.91-26.1 173.91-19.46 168.03-19.46Q166.98-19.46 166.05-19.07 165.12-18.68 164.44-17.99 163.76-17.31 163.37-16.38 162.98-15.45 162.98-14.4L162.98-14.4ZM201.84-26.1L201.84 0 200.23 0 197.64-3.59Q196.69-2.73 195.63-1.99 194.57-1.25 193.39-0.7 192.22-0.15 190.99 0.17 189.76 0.49 188.49 0.49L188.49 0.49Q185.73 0.49 183.3-0.44 180.87-1.37 179.05-3.14 177.23-4.91 176.18-7.47 175.13-10.03 175.13-13.31L175.13-13.31Q175.13-16.36 176.18-18.91 177.23-21.46 179.05-23.29 180.87-25.12 183.3-26.14 185.73-27.15 188.49-27.15L188.49-27.15Q189.76-27.15 191-26.83 192.25-26.51 193.42-25.95 194.59-25.39 195.65-24.63 196.71-23.88 197.64-23L197.64-23 200.23-26.1 201.84-26.1ZM195.13-13.31L195.13-13.31Q195.13-14.67 194.6-15.95 194.08-17.24 193.17-18.23 192.27-19.21 191.06-19.81 189.85-20.41 188.49-20.41L188.49-20.41Q187.12-20.41 185.91-19.95 184.7-19.48 183.81-18.58 182.92-17.68 182.41-16.35 181.89-15.01 181.89-13.31L181.89-13.31Q181.89-11.6 182.41-10.27 182.92-8.94 183.81-8.03 184.7-7.13 185.91-6.67 187.12-6.2 188.49-6.2L188.49-6.2Q189.85-6.2 191.06-6.8 192.27-7.4 193.17-8.39 194.08-9.38 194.6-10.66 195.13-11.94 195.13-13.31ZM229.77-20.95L229.77-20.95 224.88-16.04Q224.52-17.07 223.88-17.88 223.25-18.7 222.46-19.26 221.66-19.82 220.73-20.12 219.81-20.41 218.83-20.41L218.83-20.41Q217.46-20.41 216.25-19.85 215.05-19.29 214.15-18.27 213.26-17.26 212.75-15.87 212.24-14.48 212.24-12.79L212.24-12.79Q212.24-11.43 212.75-10.23 213.26-9.03 214.15-8.13 215.05-7.23 216.25-6.71 217.46-6.2 218.83-6.2L218.83-6.2Q219.81-6.2 220.71-6.47 221.61-6.74 222.41-7.24 223.2-7.74 223.82-8.46 224.45-9.18 224.84-10.06L224.84-10.06 229.72-5.15Q228.79-3.83 227.58-2.78 226.37-1.73 224.97-1 223.57-0.27 222.02 0.11 220.47 0.49 218.83 0.49L218.83 0.49Q216.07 0.49 213.64-0.55 211.21-1.59 209.39-3.39 207.58-5.2 206.53-7.62 205.48-10.03 205.48-12.79L205.48-12.79Q205.48-15.8 206.53-18.41 207.58-21.02 209.39-22.96 211.21-24.9 213.64-26.03 216.07-27.15 218.83-27.15L218.83-27.15Q220.47-27.15 222.04-26.73 223.62-26.32 225.04-25.52 226.47-24.73 227.68-23.58 228.89-22.44 229.77-20.95ZM239.73-3.34L239.73 0 233.01 0 233.01-36.55 239.73-36.55 239.73-13.5 249.66-26.1 257.33-26.1 248.66-15.21 257.33 0 249.66 0 244.36-9.5 239.73-3.34Z" opacity="1" transform="matrix(1,0,0,1,0,0)" fill="white" class="wordmark-text-0" id="SvgjsPath4262"></path></svg></g></svg></g></svg></g></svg></g><g transform="matrix(1,0,0,1,53.25990473207951,0)"><svg viewBox="0 0 85.48019053584098 38.95296699051452" height="38.95296699051452" width="85.48019053584098"><g><svg xmlns="http://www.w3.org/2000/svg" xmlns:xlink="http://www.w3.org/1999/xlink" version="1.1" x="0" y="0" viewBox="5 29.49387475885969 90 41.012625348283166" enable-background="new 0 0 100 100" xml:space="preserve" height="38.95296699051452" width="85.48019053584098" class="icon-icon-0" data-fill-palette-color="accent" id="SvgjsSvg4261"><g fill="black"><path d="M23.943 30.807L5 50.001l18.942 19.192c1.728 1.751 4.53 1.751 6.258 0.002 1.729-1.75 1.73-4.587 0.002-6.338L18.193 50.695l-3.624 2.289 15.634-15.841c0.864-0.875 1.295-2.021 1.295-3.168 0-1.147-0.433-2.295-1.297-3.17C28.473 29.056 25.671 29.057 23.943 30.807z" fill="black"></path><path d="M76.057 30.808L95 50.001 76.058 69.193c-1.728 1.751-4.53 1.751-6.258 0.002-1.729-1.75-1.73-4.587-0.002-6.338l12.009-12.161 3.624 2.289L69.796 37.144c-0.864-0.875-1.295-2.021-1.295-3.168 0-1.147 0.433-2.295 1.297-3.17C71.527 29.056 74.329 29.057 76.057 30.808z" fill="black"></path><path d="M60.899 32.352c-0.419-1.068-1.241-1.978-2.366-2.476-2.249-0.997-4.857 0.028-5.825 2.288l-13.82 32.062c-0.484 1.13-0.467 2.355-0.048 3.422 0.419 1.068 1.241 1.978 2.366 2.476 2.249 0.997 4.857-0.028 5.825-2.288l13.82-32.062C61.335 34.644 61.318 33.419 60.899 32.352z" fill="black"></path></g></svg></g></svg></g><g></g></svg></g></svg></g></svg></g></svg></g><defs><mask></mask></defs></svg><rect width="320" height="360" fill="black" stroke="none" visibility="hidden"></rect></g></mask><linearGradient x1="0.054" x2="0.941" y1="0.5" y2="0.5" id="509df1b5-6cd6-42bf-b03f-955333fb8d81"><stop stop-color="#0f3054" offset="0"></stop><stop stop-color="#3b8dcb" offset="0.498"></stop><stop stop-color="#0f3054" offset="1"></stop></linearGradient><rect width="320.000047" height="360" fill="#000000" mask="url(#821fcfad-3aee-4c5c-a5a0-0a39134af583)" data-fill-palette-color="primary"></rect><mask id="aff059d1-3ece-4551-9405-38f62415a35e"><g id="SvgjsG4274"><svg viewBox="0 0 320 360" height="360" width="320"><g><svg></svg></g><g><svg viewBox="0 0 320 360" height="360" width="320"><g><path transform="translate(-74.99272,-51.79039) scale(4.65793,4.65793)" d="M20.6 59.9l0.8 1-0.4-1.3c-0.1-0.6-0.8 0.1-0.4 0.3M21.5 59.3c0.3 0.5 0.6 1 0.6 1.5 0 0.7 0.6 1 1.1 1.2-0.7-0.8-1.1-3-1.7-2.7M59.9 16.9c1.7 0 3.3-0.2 5.1 0.2 4.4 1.1 8.1 3.3 10.6 6.4l7 11.2c0.3 2.8 0.9 5.9 0.8 9.3 0.7 0 0.6-1 1.4-1.2-0.8 2-1.2 4.5-1.4 7.4-0.5-1.6 0-4 0.1-5.3-0.7 1.1-1.1 0.3-1.1-0.2 0.1-0.8-0.3-0.7-0.6-1-1.1-1-1.8-2.1-2.6-3.8 0.5-1.3 0.6-3.2-1-4.2-0.5-0.3-1.1-0.8-1.4-1.6-0.4-1.1-1.1-2.4-0.9-4.1 0.1-0.5-1.5 1.1-2.4 0.4-3.9-2.7-7.8-5.8-12.5-8.4-2.5 0-4.3-0.9-5.2-2-0.8-1-0.2-2.3 1-2.4 0.7 0 1.5-0.2 2.1 0.2 0.1-0.4 0.5-0.9 1-0.9M50 14.6l0.2 0.1c1 0.2 1.5 1.6 2.6 1.1 0 0.7 0.1 1.4-0.1 1.9-0.3 0.8-1.2 0.8-1.9 0.8-6.7-0.4-10.6 2.4-14.7 4.8-1.1 0.7-2.3 1.2-3.2 2.1-4.3 4-9 7.7-10.1 15.1l-0.9 8.2c-0.1 0.9-1.1 1.8-0.9 2.9l0.7 4.9c-0.7-0.7-1.1 0.2-0.9 0.6 0.1 0.3 0.5 1.3 1.1 0.4 0.8 1.5 1.6 4.4 2.7 5.7 3.4 4 7.8 7.6 11.4 11.2 0.9-0.2 1.6-0.2 1.8-0.8 0.3 0.6-0.3 1.2-0.8 1.3 1.6 1 3.4 1.9 5.8 2.1 3.1 0.2 6 0.7 8.7 1.4 1.4-0.4 2.8-0.6 4.3-0.7 0.5 0 0.8-0.8 1.4-1l0.1-1c0.6 0.9 0.5-0.3 0.1-0.9 0.7 0.6 0.9 1.1 1.2 1.5 0-0.3 0.8-1.4 0.8-0.1l0.2-1.3c0.3-0.2 0.4 1.1 0.7 0.2 0.3-0.9 0.9-0.2 1.5-0.5-0.2 0.4-0.1 1.2 0.6 0.7l0.8-0.7c0.5 1.2 1.3 0.7 1.7 0.5 4.4-2.8 8.8-6.1 13-9.4l-0.1 1.3 0.5-1.6c0.5 0.5 0.9 0.1 1.1-0.2 0.6-1 1.4-2 2.7-2.9-1.6 4.3-3.5 7.7-5.9 10.5l-1 1.2c0 0.7-0.2 1.6-1 1.7-0.4 0.1-1.2-0.2-1.8 0.4-0.3 0.4 0.7 1.2-0.1 0.6-0.7-0.5-1.4 0-2.2 0.2-0.6 0.2 0.4 0.8 0.6 1.2 0.2 0.4 0.4 0.8 0.3 1.3l-1.1-1.2c-1.3 0.7-2.1 2-3.2 3-0.5 0.4-0.3 1.1-0.3 1.7-0.7 0-1.5-0.2-1.9 0.2-0.3 0.4-0.2 1-0.2 1.6-1-0.1-1.1-1.6-2-1.3-0.9 0.2-1.9 0.3-2.7 0.8 0.6 1.2-1 0.5-0.8 0.7-1.5-0.9-2.8-1.6-4.4-1-3.4-1.1-7.6-0.6-10.7-0.2 0-0.5 0.1-1-0.1-1.1-0.2 0.5-0.8 0.3-0.7 0.3-1.9-1.3-3.8-2.1-5.8-3.2-1.8 0.2-3.5-0.7-4-1.2-1.4-1.3-3-0.6-4.3-0.9-2.8-0.7-3.8-3.6-4.1-5.6-0.2-1-1-1.4-1.3-1.3-1.3-4.2-3.3-8-4.9-11.9-0.4-1-0.3-2-0.3-3.1 0.5 0.2 1 0.1 0.9-0.6-0.5-3.3-1.7-5.8-3-8.2 0.7-3.4 0.8-7.4 2.4-10.4 1.4-2.7 4-4.1 5.8-6.4 0.6-0.8 0.6-1.9 1.2-2.6 2-2 4-4.1 6.2-5.9 1-0.8 2.2 0 3.7-0.3 0.5-1.8 2.5-3.4 4.4-2.9 0.8 0.2 2.4-1.9 2.9-2.1 0.8-0.3 0.4 0.8 0.4 1.5 1.9-1.5 4.5-2.3 6.9-3.2" fill="black" fill-rule="nonzero" stroke="none" stroke-width="1" stroke-linecap="butt" stroke-linejoin="miter" stroke-miterlimit="10" stroke-dasharray="" stroke-dashoffset="0" font-family="none" font-weight="none" font-size="none" text-anchor="none" style="mix-blend-mode: normal"></path></g><g transform="matrix(1,0,0,1,64,144.5339405760276)"><svg viewBox="0 0 192 70.93211884794482" height="70.93211884794482" width="192"><g><svg viewBox="0 0 192 70.93211884794482" height="70.93211884794482" width="192"><g><svg viewBox="0 0 192 70.93211884794482" height="70.93211884794482" width="192"><g transform="matrix(1,0,0,1,0,43.02524905777523)"><svg viewBox="0 0 192 27.90686979016959" height="27.90686979016959" width="192"><g id="SvgjsG4273"><svg viewBox="0 0 192 27.90686979016959" height="27.90686979016959" width="192" id="SvgjsSvg4272"><g><svg viewBox="0 0 192 27.90686979016959" height="27.90686979016959" width="192"><g transform="matrix(1,0,0,1,0,0)"><svg width="192" viewBox="2.54 -36.55 254.79 37.04" height="27.90686979016959" data-palette-color="url(#509df1b5-6cd6-42bf-b03f-955333fb8d81)"></svg></g></svg></g></svg></g></svg></g><g transform="matrix(1,0,0,1,53.25990473207951,0)"><svg viewBox="0 0 85.48019053584098 38.95296699051452" height="38.95296699051452" width="85.48019053584098"><g><svg xmlns="http://www.w3.org/2000/svg" xmlns:xlink="http://www.w3.org/1999/xlink" version="1.1" x="0" y="0" viewBox="5 29.49387475885969 90 41.012625348283166" enable-background="new 0 0 100 100" xml:space="preserve" height="38.95296699051452" width="85.48019053584098" class="icon-icon-0" data-fill-palette-color="accent" id="SvgjsSvg4271"><g fill="white"><path d="M23.943 30.807L5 50.001l18.942 19.192c1.728 1.751 4.53 1.751 6.258 0.002 1.729-1.75 1.73-4.587 0.002-6.338L18.193 50.695l-3.624 2.289 15.634-15.841c0.864-0.875 1.295-2.021 1.295-3.168 0-1.147-0.433-2.295-1.297-3.17C28.473 29.056 25.671 29.057 23.943 30.807z" fill="white"></path><path d="M76.057 30.808L95 50.001 76.058 69.193c-1.728 1.751-4.53 1.751-6.258 0.002-1.729-1.75-1.73-4.587-0.002-6.338l12.009-12.161 3.624 2.289L69.796 37.144c-0.864-0.875-1.295-2.021-1.295-3.168 0-1.147 0.433-2.295 1.297-3.17C71.527 29.056 74.329 29.057 76.057 30.808z" fill="white"></path><path d="M60.899 32.352c-0.419-1.068-1.241-1.978-2.366-2.476-2.249-0.997-4.857 0.028-5.825 2.288l-13.82 32.062c-0.484 1.13-0.467 2.355-0.048 3.422 0.419 1.068 1.241 1.978 2.366 2.476 2.249 0.997 4.857-0.028 5.825-2.288l13.82-32.062C61.335 34.644 61.318 33.419 60.899 32.352z" fill="white"></path></g></svg></g></svg></g><g></g></svg></g></svg></g></svg></g></svg></g><defs><mask></mask></defs><mask><g id="SvgjsG4270"><svg viewBox="0 0 320 360" height="360" width="320"><g><svg></svg></g><g><svg viewBox="0 0 320 360" height="360" width="320"><g><path transform="translate(-74.99272,-51.79039) scale(4.65793,4.65793)" d="M20.6 59.9l0.8 1-0.4-1.3c-0.1-0.6-0.8 0.1-0.4 0.3M21.5 59.3c0.3 0.5 0.6 1 0.6 1.5 0 0.7 0.6 1 1.1 1.2-0.7-0.8-1.1-3-1.7-2.7M59.9 16.9c1.7 0 3.3-0.2 5.1 0.2 4.4 1.1 8.1 3.3 10.6 6.4l7 11.2c0.3 2.8 0.9 5.9 0.8 9.3 0.7 0 0.6-1 1.4-1.2-0.8 2-1.2 4.5-1.4 7.4-0.5-1.6 0-4 0.1-5.3-0.7 1.1-1.1 0.3-1.1-0.2 0.1-0.8-0.3-0.7-0.6-1-1.1-1-1.8-2.1-2.6-3.8 0.5-1.3 0.6-3.2-1-4.2-0.5-0.3-1.1-0.8-1.4-1.6-0.4-1.1-1.1-2.4-0.9-4.1 0.1-0.5-1.5 1.1-2.4 0.4-3.9-2.7-7.8-5.8-12.5-8.4-2.5 0-4.3-0.9-5.2-2-0.8-1-0.2-2.3 1-2.4 0.7 0 1.5-0.2 2.1 0.2 0.1-0.4 0.5-0.9 1-0.9M50 14.6l0.2 0.1c1 0.2 1.5 1.6 2.6 1.1 0 0.7 0.1 1.4-0.1 1.9-0.3 0.8-1.2 0.8-1.9 0.8-6.7-0.4-10.6 2.4-14.7 4.8-1.1 0.7-2.3 1.2-3.2 2.1-4.3 4-9 7.7-10.1 15.1l-0.9 8.2c-0.1 0.9-1.1 1.8-0.9 2.9l0.7 4.9c-0.7-0.7-1.1 0.2-0.9 0.6 0.1 0.3 0.5 1.3 1.1 0.4 0.8 1.5 1.6 4.4 2.7 5.7 3.4 4 7.8 7.6 11.4 11.2 0.9-0.2 1.6-0.2 1.8-0.8 0.3 0.6-0.3 1.2-0.8 1.3 1.6 1 3.4 1.9 5.8 2.1 3.1 0.2 6 0.7 8.7 1.4 1.4-0.4 2.8-0.6 4.3-0.7 0.5 0 0.8-0.8 1.4-1l0.1-1c0.6 0.9 0.5-0.3 0.1-0.9 0.7 0.6 0.9 1.1 1.2 1.5 0-0.3 0.8-1.4 0.8-0.1l0.2-1.3c0.3-0.2 0.4 1.1 0.7 0.2 0.3-0.9 0.9-0.2 1.5-0.5-0.2 0.4-0.1 1.2 0.6 0.7l0.8-0.7c0.5 1.2 1.3 0.7 1.7 0.5 4.4-2.8 8.8-6.1 13-9.4l-0.1 1.3 0.5-1.6c0.5 0.5 0.9 0.1 1.1-0.2 0.6-1 1.4-2 2.7-2.9-1.6 4.3-3.5 7.7-5.9 10.5l-1 1.2c0 0.7-0.2 1.6-1 1.7-0.4 0.1-1.2-0.2-1.8 0.4-0.3 0.4 0.7 1.2-0.1 0.6-0.7-0.5-1.4 0-2.2 0.2-0.6 0.2 0.4 0.8 0.6 1.2 0.2 0.4 0.4 0.8 0.3 1.3l-1.1-1.2c-1.3 0.7-2.1 2-3.2 3-0.5 0.4-0.3 1.1-0.3 1.7-0.7 0-1.5-0.2-1.9 0.2-0.3 0.4-0.2 1-0.2 1.6-1-0.1-1.1-1.6-2-1.3-0.9 0.2-1.9 0.3-2.7 0.8 0.6 1.2-1 0.5-0.8 0.7-1.5-0.9-2.8-1.6-4.4-1-3.4-1.1-7.6-0.6-10.7-0.2 0-0.5 0.1-1-0.1-1.1-0.2 0.5-0.8 0.3-0.7 0.3-1.9-1.3-3.8-2.1-5.8-3.2-1.8 0.2-3.5-0.7-4-1.2-1.4-1.3-3-0.6-4.3-0.9-2.8-0.7-3.8-3.6-4.1-5.6-0.2-1-1-1.4-1.3-1.3-1.3-4.2-3.3-8-4.9-11.9-0.4-1-0.3-2-0.3-3.1 0.5 0.2 1 0.1 0.9-0.6-0.5-3.3-1.7-5.8-3-8.2 0.7-3.4 0.8-7.4 2.4-10.4 1.4-2.7 4-4.1 5.8-6.4 0.6-0.8 0.6-1.9 1.2-2.6 2-2 4-4.1 6.2-5.9 1-0.8 2.2 0 3.7-0.3 0.5-1.8 2.5-3.4 4.4-2.9 0.8 0.2 2.4-1.9 2.9-2.1 0.8-0.3 0.4 0.8 0.4 1.5 1.9-1.5 4.5-2.3 6.9-3.2" fill="black" fill-rule="nonzero" stroke="none" stroke-width="1" stroke-linecap="butt" stroke-linejoin="miter" stroke-miterlimit="10" stroke-dasharray="" stroke-dashoffset="0" font-family="none" font-weight="none" font-size="none" text-anchor="none" style="mix-blend-mode: normal"></path></g><g transform="matrix(1,0,0,1,64,144.5339405760276)"><svg viewBox="0 0 192 70.93211884794482" height="70.93211884794482" width="192"><g><svg viewBox="0 0 192 70.93211884794482" height="70.93211884794482" width="192"><g><svg viewBox="0 0 192 70.93211884794482" height="70.93211884794482" width="192"><g transform="matrix(1,0,0,1,0,43.02524905777523)"><svg viewBox="0 0 192 27.90686979016959" height="27.90686979016959" width="192"><g id="SvgjsG4269"><svg viewBox="0 0 192 27.90686979016959" height="27.90686979016959" width="192" id="SvgjsSvg4268"><g><svg viewBox="0 0 192 27.90686979016959" height="27.90686979016959" width="192"><g transform="matrix(1,0,0,1,0,0)"><svg width="192" viewBox="2.54 -36.55 254.79 37.04" height="27.90686979016959" data-palette-color="url(#509df1b5-6cd6-42bf-b03f-955333fb8d81)"><path d="M35.79-16.6L35.79 0 29.15 0 29.15-16.6Q29.15-17.29 28.89-17.9 28.64-18.51 28.17-18.97 27.71-19.43 27.1-19.69 26.49-19.95 25.81-19.95L25.81-19.95Q25.12-19.95 24.52-19.69 23.93-19.43 23.47-18.97 23.02-18.51 22.77-17.9 22.51-17.29 22.51-16.6L22.51-16.6 22.51 0 15.84 0 15.84-16.6Q15.84-17.29 15.59-17.9 15.33-18.51 14.87-18.97 14.4-19.43 13.79-19.69 13.18-19.95 12.5-19.95L12.5-19.95Q11.82-19.95 11.22-19.69 10.62-19.43 10.17-18.97 9.72-18.51 9.46-17.9 9.2-17.29 9.2-16.6L9.2-16.6 9.2 0 2.54 0 2.54-26.15 4.15-26.15 5.96-24.15Q7.35-25.32 9.02-25.96 10.69-26.61 12.5-26.61L12.5-26.61Q14.33-26.61 16.08-25.93 17.82-25.24 19.14-23.56L19.14-23.56Q19.75-24.39 20.53-24.98 21.31-25.56 22.18-25.93 23.05-26.29 23.97-26.45 24.9-26.61 25.81-26.61L25.81-26.61Q27.88-26.61 29.7-25.83 31.52-25.05 32.87-23.69 34.23-22.34 35.01-20.51 35.79-18.68 35.79-16.6L35.79-16.6ZM65.92-13.31L65.92-13.31Q65.92-10.38 64.87-7.85 63.82-5.32 62.01-3.48 60.2-1.64 57.77-0.57 55.34 0.49 52.56 0.49L52.56 0.49Q49.8 0.49 47.37-0.57 44.94-1.64 43.12-3.48 41.31-5.32 40.26-7.85 39.21-10.38 39.21-13.31L39.21-13.31Q39.21-16.28 40.26-18.82 41.31-21.36 43.12-23.21 44.94-25.05 47.37-26.1 49.8-27.15 52.56-27.15L52.56-27.15Q55.34-27.15 57.77-26.16 60.2-25.17 62.01-23.35 63.82-21.53 64.87-18.98 65.92-16.43 65.92-13.31ZM59.2-13.31L59.2-13.31Q59.2-14.92 58.68-16.22 58.15-17.53 57.25-18.47 56.35-19.41 55.14-19.91 53.93-20.41 52.56-20.41L52.56-20.41Q51.19-20.41 49.99-19.91 48.78-19.41 47.89-18.47 46.99-17.53 46.48-16.22 45.97-14.92 45.97-13.31L45.97-13.31Q45.97-11.79 46.48-10.5 46.99-9.2 47.89-8.25 48.78-7.3 49.99-6.75 51.19-6.2 52.56-6.2L52.56-6.2Q53.93-6.2 55.14-6.71 56.35-7.23 57.25-8.15 58.15-9.08 58.68-10.4 59.2-11.72 59.2-13.31ZM94.87-13.31L94.87-13.31Q94.87-10.38 93.82-7.85 92.77-5.32 90.96-3.48 89.16-1.64 86.73-0.57 84.3 0.49 81.51 0.49L81.51 0.49Q78.75 0.49 76.33-0.57 73.9-1.64 72.08-3.48 70.26-5.32 69.21-7.85 68.16-10.38 68.16-13.31L68.16-13.31Q68.16-16.28 69.21-18.82 70.26-21.36 72.08-23.21 73.9-25.05 76.33-26.1 78.75-27.15 81.51-27.15L81.51-27.15Q84.3-27.15 86.73-26.16 89.16-25.17 90.96-23.35 92.77-21.53 93.82-18.98 94.87-16.43 94.87-13.31ZM88.15-13.31L88.15-13.31Q88.15-14.92 87.63-16.22 87.1-17.53 86.2-18.47 85.3-19.41 84.09-19.91 82.88-20.41 81.51-20.41L81.51-20.41Q80.15-20.41 78.94-19.91 77.73-19.41 76.84-18.47 75.95-17.53 75.43-16.22 74.92-14.92 74.92-13.31L74.92-13.31Q74.92-11.79 75.43-10.5 75.95-9.2 76.84-8.25 77.73-7.3 78.94-6.75 80.15-6.2 81.51-6.2L81.51-6.2Q82.88-6.2 84.09-6.71 85.3-7.23 86.2-8.15 87.1-9.08 87.63-10.4 88.15-11.72 88.15-13.31ZM105.22-14.94L105.22 0 98.55 0 98.55-26.15 100.16-26.15 102.36-23.61Q103.97-25.07 106.01-25.87 108.05-26.66 110.27-26.66L110.27-26.66Q112.66-26.66 114.79-25.74 116.91-24.83 118.5-23.23 120.09-21.63 121-19.49 121.92-17.36 121.92-14.94L121.92-14.94 121.92 0 115.25 0 115.25-14.94Q115.25-15.97 114.86-16.88 114.47-17.8 113.79-18.48 113.1-19.17 112.2-19.56 111.3-19.95 110.27-19.95L110.27-19.95Q109.22-19.95 108.29-19.56 107.37-19.17 106.68-18.48 106-17.8 105.61-16.88 105.22-15.97 105.22-14.94L105.22-14.94ZM152.63-13.31L152.63-13.31Q152.63-10.23 151.58-7.69 150.53-5.15 148.72-3.33 146.91-1.51 144.48-0.51 142.06 0.49 139.27 0.49L139.27 0.49Q136.51 0.49 134.08-0.54 131.66-1.56 129.84-3.39 128.02-5.22 126.97-7.75 125.92-10.28 125.92-13.31L125.92-13.31 125.92-36.55 132.61-36.55 132.61-24.34Q133.14-25.02 133.91-25.56 134.68-26.1 135.57-26.44 136.46-26.78 137.42-26.97 138.37-27.15 139.27-27.15L139.27-27.15Q142.06-27.15 144.48-26.11 146.91-25.07 148.72-23.22 150.53-21.36 151.58-18.84 152.63-16.31 152.63-13.31ZM145.91-13.31L145.91-13.31Q145.91-14.82 145.39-16.13 144.86-17.43 143.96-18.38 143.06-19.34 141.85-19.87 140.64-20.41 139.27-20.41L139.27-20.41Q137.91-20.41 136.7-19.81 135.49-19.21 134.58-18.23 133.68-17.24 133.17-15.95 132.66-14.67 132.66-13.31L132.66-13.31Q132.66-11.79 133.17-10.5 133.68-9.2 134.58-8.25 135.49-7.3 136.7-6.75 137.91-6.2 139.27-6.2L139.27-6.2Q140.64-6.2 141.85-6.75 143.06-7.3 143.96-8.25 144.86-9.2 145.39-10.5 145.91-11.79 145.91-13.31ZM162.98-14.4L162.98 0 156.31 0 156.31-26.15 157.92-26.15 160.12-23.05Q161.73-24.51 163.78-25.31 165.83-26.1 168.03-26.1L168.03-26.1 173.91-26.1 173.91-19.46 168.03-19.46Q166.98-19.46 166.05-19.07 165.12-18.68 164.44-17.99 163.76-17.31 163.37-16.38 162.98-15.45 162.98-14.4L162.98-14.4ZM201.84-26.1L201.84 0 200.23 0 197.64-3.59Q196.69-2.73 195.63-1.99 194.57-1.25 193.39-0.7 192.22-0.15 190.99 0.17 189.76 0.49 188.49 0.49L188.49 0.49Q185.73 0.49 183.3-0.44 180.87-1.37 179.05-3.14 177.23-4.91 176.18-7.47 175.13-10.03 175.13-13.31L175.13-13.31Q175.13-16.36 176.18-18.91 177.23-21.46 179.05-23.29 180.87-25.12 183.3-26.14 185.73-27.15 188.49-27.15L188.49-27.15Q189.76-27.15 191-26.83 192.25-26.51 193.42-25.95 194.59-25.39 195.65-24.63 196.71-23.88 197.64-23L197.64-23 200.23-26.1 201.84-26.1ZM195.13-13.31L195.13-13.31Q195.13-14.67 194.6-15.95 194.08-17.24 193.17-18.23 192.27-19.21 191.06-19.81 189.85-20.41 188.49-20.41L188.49-20.41Q187.12-20.41 185.91-19.95 184.7-19.48 183.81-18.58 182.92-17.68 182.41-16.35 181.89-15.01 181.89-13.31L181.89-13.31Q181.89-11.6 182.41-10.27 182.92-8.94 183.81-8.03 184.7-7.13 185.91-6.67 187.12-6.2 188.49-6.2L188.49-6.2Q189.85-6.2 191.06-6.8 192.27-7.4 193.17-8.39 194.08-9.38 194.6-10.66 195.13-11.94 195.13-13.31ZM229.77-20.95L229.77-20.95 224.88-16.04Q224.52-17.07 223.88-17.88 223.25-18.7 222.46-19.26 221.66-19.82 220.73-20.12 219.81-20.41 218.83-20.41L218.83-20.41Q217.46-20.41 216.25-19.85 215.05-19.29 214.15-18.27 213.26-17.26 212.75-15.87 212.24-14.48 212.24-12.79L212.24-12.79Q212.24-11.43 212.75-10.23 213.26-9.03 214.15-8.13 215.05-7.23 216.25-6.71 217.46-6.2 218.83-6.2L218.83-6.2Q219.81-6.2 220.71-6.47 221.61-6.74 222.41-7.24 223.2-7.74 223.82-8.46 224.45-9.18 224.84-10.06L224.84-10.06 229.72-5.15Q228.79-3.83 227.58-2.78 226.37-1.73 224.97-1 223.57-0.27 222.02 0.11 220.47 0.49 218.83 0.49L218.83 0.49Q216.07 0.49 213.64-0.55 211.21-1.59 209.39-3.39 207.58-5.2 206.53-7.62 205.48-10.03 205.48-12.79L205.48-12.79Q205.48-15.8 206.53-18.41 207.58-21.02 209.39-22.96 211.21-24.9 213.64-26.03 216.07-27.15 218.83-27.15L218.83-27.15Q220.47-27.15 222.04-26.73 223.62-26.32 225.04-25.52 226.47-24.73 227.68-23.58 228.89-22.44 229.77-20.95ZM239.73-3.34L239.73 0 233.01 0 233.01-36.55 239.73-36.55 239.73-13.5 249.66-26.1 257.33-26.1 248.66-15.21 257.33 0 249.66 0 244.36-9.5 239.73-3.34Z" opacity="1" transform="matrix(1,0,0,1,0,0)" fill="black" class="wordmark-text-0" id="SvgjsPath4267"></path></svg></g></svg></g></svg></g></svg></g><g transform="matrix(1,0,0,1,53.25990473207951,0)"><svg viewBox="0 0 85.48019053584098 38.95296699051452" height="38.95296699051452" width="85.48019053584098"><g><svg xmlns="http://www.w3.org/2000/svg" xmlns:xlink="http://www.w3.org/1999/xlink" version="1.1" x="0" y="0" viewBox="5 29.49387475885969 90 41.012625348283166" enable-background="new 0 0 100 100" xml:space="preserve" height="38.95296699051452" width="85.48019053584098" class="icon-icon-0" data-fill-palette-color="accent" id="SvgjsSvg4266"><g fill="black"><path d="M23.943 30.807L5 50.001l18.942 19.192c1.728 1.751 4.53 1.751 6.258 0.002 1.729-1.75 1.73-4.587 0.002-6.338L18.193 50.695l-3.624 2.289 15.634-15.841c0.864-0.875 1.295-2.021 1.295-3.168 0-1.147-0.433-2.295-1.297-3.17C28.473 29.056 25.671 29.057 23.943 30.807z" fill="black"></path><path d="M76.057 30.808L95 50.001 76.058 69.193c-1.728 1.751-4.53 1.751-6.258 0.002-1.729-1.75-1.73-4.587-0.002-6.338l12.009-12.161 3.624 2.289L69.796 37.144c-0.864-0.875-1.295-2.021-1.295-3.168 0-1.147 0.433-2.295 1.297-3.17C71.527 29.056 74.329 29.057 76.057 30.808z" fill="black"></path><path d="M60.899 32.352c-0.419-1.068-1.241-1.978-2.366-2.476-2.249-0.997-4.857 0.028-5.825 2.288l-13.82 32.062c-0.484 1.13-0.467 2.355-0.048 3.422 0.419 1.068 1.241 1.978 2.366 2.476 2.249 0.997 4.857-0.028 5.825-2.288l13.82-32.062C61.335 34.644 61.318 33.419 60.899 32.352z" fill="black"></path></g></svg></g></svg></g><g></g></svg></g></svg></g></svg></g></svg></g><defs><mask></mask></defs></svg><rect width="320" height="360" fill="black" stroke="none" visibility="hidden"></rect></g></mask></svg><rect width="320" height="360" fill="black" stroke="none" visibility="hidden"></rect></g></mask><linearGradient x1="0.054" x2="0.941" y1="0.5" y2="0.5" id="8e574ff2-6055-4aa3-a904-f3021698d542"><stop stop-color="#0f3054" offset="0"></stop><stop stop-color="#3b8dcb" offset="0.498"></stop><stop stop-color="#0f3054" offset="1"></stop></linearGradient><rect width="320.000094" height="360" fill="#000000" mask="url(#aff059d1-3ece-4551-9405-38f62415a35e)" data-fill-palette-color="accent"></rect><mask id="8b40b1af-1abd-416b-9f8b-fed708dc168a"><g id="SvgjsG4292"><svg viewBox="0 0 320 360" height="360" width="320"><g><svg></svg></g><g><svg viewBox="0 0 320 360" height="360" width="320"><g><path transform="translate(-74.99272,-51.79039) scale(4.65793,4.65793)" d="M20.6 59.9l0.8 1-0.4-1.3c-0.1-0.6-0.8 0.1-0.4 0.3M21.5 59.3c0.3 0.5 0.6 1 0.6 1.5 0 0.7 0.6 1 1.1 1.2-0.7-0.8-1.1-3-1.7-2.7M59.9 16.9c1.7 0 3.3-0.2 5.1 0.2 4.4 1.1 8.1 3.3 10.6 6.4l7 11.2c0.3 2.8 0.9 5.9 0.8 9.3 0.7 0 0.6-1 1.4-1.2-0.8 2-1.2 4.5-1.4 7.4-0.5-1.6 0-4 0.1-5.3-0.7 1.1-1.1 0.3-1.1-0.2 0.1-0.8-0.3-0.7-0.6-1-1.1-1-1.8-2.1-2.6-3.8 0.5-1.3 0.6-3.2-1-4.2-0.5-0.3-1.1-0.8-1.4-1.6-0.4-1.1-1.1-2.4-0.9-4.1 0.1-0.5-1.5 1.1-2.4 0.4-3.9-2.7-7.8-5.8-12.5-8.4-2.5 0-4.3-0.9-5.2-2-0.8-1-0.2-2.3 1-2.4 0.7 0 1.5-0.2 2.1 0.2 0.1-0.4 0.5-0.9 1-0.9M50 14.6l0.2 0.1c1 0.2 1.5 1.6 2.6 1.1 0 0.7 0.1 1.4-0.1 1.9-0.3 0.8-1.2 0.8-1.9 0.8-6.7-0.4-10.6 2.4-14.7 4.8-1.1 0.7-2.3 1.2-3.2 2.1-4.3 4-9 7.7-10.1 15.1l-0.9 8.2c-0.1 0.9-1.1 1.8-0.9 2.9l0.7 4.9c-0.7-0.7-1.1 0.2-0.9 0.6 0.1 0.3 0.5 1.3 1.1 0.4 0.8 1.5 1.6 4.4 2.7 5.7 3.4 4 7.8 7.6 11.4 11.2 0.9-0.2 1.6-0.2 1.8-0.8 0.3 0.6-0.3 1.2-0.8 1.3 1.6 1 3.4 1.9 5.8 2.1 3.1 0.2 6 0.7 8.7 1.4 1.4-0.4 2.8-0.6 4.3-0.7 0.5 0 0.8-0.8 1.4-1l0.1-1c0.6 0.9 0.5-0.3 0.1-0.9 0.7 0.6 0.9 1.1 1.2 1.5 0-0.3 0.8-1.4 0.8-0.1l0.2-1.3c0.3-0.2 0.4 1.1 0.7 0.2 0.3-0.9 0.9-0.2 1.5-0.5-0.2 0.4-0.1 1.2 0.6 0.7l0.8-0.7c0.5 1.2 1.3 0.7 1.7 0.5 4.4-2.8 8.8-6.1 13-9.4l-0.1 1.3 0.5-1.6c0.5 0.5 0.9 0.1 1.1-0.2 0.6-1 1.4-2 2.7-2.9-1.6 4.3-3.5 7.7-5.9 10.5l-1 1.2c0 0.7-0.2 1.6-1 1.7-0.4 0.1-1.2-0.2-1.8 0.4-0.3 0.4 0.7 1.2-0.1 0.6-0.7-0.5-1.4 0-2.2 0.2-0.6 0.2 0.4 0.8 0.6 1.2 0.2 0.4 0.4 0.8 0.3 1.3l-1.1-1.2c-1.3 0.7-2.1 2-3.2 3-0.5 0.4-0.3 1.1-0.3 1.7-0.7 0-1.5-0.2-1.9 0.2-0.3 0.4-0.2 1-0.2 1.6-1-0.1-1.1-1.6-2-1.3-0.9 0.2-1.9 0.3-2.7 0.8 0.6 1.2-1 0.5-0.8 0.7-1.5-0.9-2.8-1.6-4.4-1-3.4-1.1-7.6-0.6-10.7-0.2 0-0.5 0.1-1-0.1-1.1-0.2 0.5-0.8 0.3-0.7 0.3-1.9-1.3-3.8-2.1-5.8-3.2-1.8 0.2-3.5-0.7-4-1.2-1.4-1.3-3-0.6-4.3-0.9-2.8-0.7-3.8-3.6-4.1-5.6-0.2-1-1-1.4-1.3-1.3-1.3-4.2-3.3-8-4.9-11.9-0.4-1-0.3-2-0.3-3.1 0.5 0.2 1 0.1 0.9-0.6-0.5-3.3-1.7-5.8-3-8.2 0.7-3.4 0.8-7.4 2.4-10.4 1.4-2.7 4-4.1 5.8-6.4 0.6-0.8 0.6-1.9 1.2-2.6 2-2 4-4.1 6.2-5.9 1-0.8 2.2 0 3.7-0.3 0.5-1.8 2.5-3.4 4.4-2.9 0.8 0.2 2.4-1.9 2.9-2.1 0.8-0.3 0.4 0.8 0.4 1.5 1.9-1.5 4.5-2.3 6.9-3.2" fill="white" fill-rule="nonzero" stroke="none" stroke-width="1" stroke-linecap="butt" stroke-linejoin="miter" stroke-miterlimit="10" stroke-dasharray="" stroke-dashoffset="0" font-family="none" font-weight="none" font-size="none" text-anchor="none" style="mix-blend-mode: normal"></path></g><g transform="matrix(1,0,0,1,64,144.5339405760276)"><svg viewBox="0 0 192 70.93211884794482" height="70.93211884794482" width="192"><g><svg viewBox="0 0 192 70.93211884794482" height="70.93211884794482" width="192"><g><svg viewBox="0 0 192 70.93211884794482" height="70.93211884794482" width="192"><g transform="matrix(1,0,0,1,0,43.02524905777523)"><svg viewBox="0 0 192 27.90686979016959" height="27.90686979016959" width="192"><g id="SvgjsG4291"><svg viewBox="0 0 192 27.90686979016959" height="27.90686979016959" width="192" id="SvgjsSvg4290"><g><svg viewBox="0 0 192 27.90686979016959" height="27.90686979016959" width="192"><g transform="matrix(1,0,0,1,0,0)"><svg width="192" viewBox="2.54 -36.55 254.79 37.04" height="27.90686979016959" data-palette-color="url(#509df1b5-6cd6-42bf-b03f-955333fb8d81)"></svg></g></svg></g></svg></g></svg></g><g transform="matrix(1,0,0,1,53.25990473207951,0)"><svg viewBox="0 0 85.48019053584098 38.95296699051452" height="38.95296699051452" width="85.48019053584098"><g><svg xmlns="http://www.w3.org/2000/svg" xmlns:xlink="http://www.w3.org/1999/xlink" version="1.1" x="0" y="0" viewBox="5 29.49387475885969 90 41.012625348283166" enable-background="new 0 0 100 100" xml:space="preserve" height="38.95296699051452" width="85.48019053584098" class="icon-icon-0" data-fill-palette-color="accent" id="SvgjsSvg4289"></svg></g></svg></g><g></g></svg></g></svg></g></svg></g></svg></g><defs><mask></mask></defs><mask><g id="SvgjsG4288"><svg viewBox="0 0 320 360" height="360" width="320"><g><svg></svg></g><g><svg viewBox="0 0 320 360" height="360" width="320"><g><path transform="translate(-74.99272,-51.79039) scale(4.65793,4.65793)" d="M20.6 59.9l0.8 1-0.4-1.3c-0.1-0.6-0.8 0.1-0.4 0.3M21.5 59.3c0.3 0.5 0.6 1 0.6 1.5 0 0.7 0.6 1 1.1 1.2-0.7-0.8-1.1-3-1.7-2.7M59.9 16.9c1.7 0 3.3-0.2 5.1 0.2 4.4 1.1 8.1 3.3 10.6 6.4l7 11.2c0.3 2.8 0.9 5.9 0.8 9.3 0.7 0 0.6-1 1.4-1.2-0.8 2-1.2 4.5-1.4 7.4-0.5-1.6 0-4 0.1-5.3-0.7 1.1-1.1 0.3-1.1-0.2 0.1-0.8-0.3-0.7-0.6-1-1.1-1-1.8-2.1-2.6-3.8 0.5-1.3 0.6-3.2-1-4.2-0.5-0.3-1.1-0.8-1.4-1.6-0.4-1.1-1.1-2.4-0.9-4.1 0.1-0.5-1.5 1.1-2.4 0.4-3.9-2.7-7.8-5.8-12.5-8.4-2.5 0-4.3-0.9-5.2-2-0.8-1-0.2-2.3 1-2.4 0.7 0 1.5-0.2 2.1 0.2 0.1-0.4 0.5-0.9 1-0.9M50 14.6l0.2 0.1c1 0.2 1.5 1.6 2.6 1.1 0 0.7 0.1 1.4-0.1 1.9-0.3 0.8-1.2 0.8-1.9 0.8-6.7-0.4-10.6 2.4-14.7 4.8-1.1 0.7-2.3 1.2-3.2 2.1-4.3 4-9 7.7-10.1 15.1l-0.9 8.2c-0.1 0.9-1.1 1.8-0.9 2.9l0.7 4.9c-0.7-0.7-1.1 0.2-0.9 0.6 0.1 0.3 0.5 1.3 1.1 0.4 0.8 1.5 1.6 4.4 2.7 5.7 3.4 4 7.8 7.6 11.4 11.2 0.9-0.2 1.6-0.2 1.8-0.8 0.3 0.6-0.3 1.2-0.8 1.3 1.6 1 3.4 1.9 5.8 2.1 3.1 0.2 6 0.7 8.7 1.4 1.4-0.4 2.8-0.6 4.3-0.7 0.5 0 0.8-0.8 1.4-1l0.1-1c0.6 0.9 0.5-0.3 0.1-0.9 0.7 0.6 0.9 1.1 1.2 1.5 0-0.3 0.8-1.4 0.8-0.1l0.2-1.3c0.3-0.2 0.4 1.1 0.7 0.2 0.3-0.9 0.9-0.2 1.5-0.5-0.2 0.4-0.1 1.2 0.6 0.7l0.8-0.7c0.5 1.2 1.3 0.7 1.7 0.5 4.4-2.8 8.8-6.1 13-9.4l-0.1 1.3 0.5-1.6c0.5 0.5 0.9 0.1 1.1-0.2 0.6-1 1.4-2 2.7-2.9-1.6 4.3-3.5 7.7-5.9 10.5l-1 1.2c0 0.7-0.2 1.6-1 1.7-0.4 0.1-1.2-0.2-1.8 0.4-0.3 0.4 0.7 1.2-0.1 0.6-0.7-0.5-1.4 0-2.2 0.2-0.6 0.2 0.4 0.8 0.6 1.2 0.2 0.4 0.4 0.8 0.3 1.3l-1.1-1.2c-1.3 0.7-2.1 2-3.2 3-0.5 0.4-0.3 1.1-0.3 1.7-0.7 0-1.5-0.2-1.9 0.2-0.3 0.4-0.2 1-0.2 1.6-1-0.1-1.1-1.6-2-1.3-0.9 0.2-1.9 0.3-2.7 0.8 0.6 1.2-1 0.5-0.8 0.7-1.5-0.9-2.8-1.6-4.4-1-3.4-1.1-7.6-0.6-10.7-0.2 0-0.5 0.1-1-0.1-1.1-0.2 0.5-0.8 0.3-0.7 0.3-1.9-1.3-3.8-2.1-5.8-3.2-1.8 0.2-3.5-0.7-4-1.2-1.4-1.3-3-0.6-4.3-0.9-2.8-0.7-3.8-3.6-4.1-5.6-0.2-1-1-1.4-1.3-1.3-1.3-4.2-3.3-8-4.9-11.9-0.4-1-0.3-2-0.3-3.1 0.5 0.2 1 0.1 0.9-0.6-0.5-3.3-1.7-5.8-3-8.2 0.7-3.4 0.8-7.4 2.4-10.4 1.4-2.7 4-4.1 5.8-6.4 0.6-0.8 0.6-1.9 1.2-2.6 2-2 4-4.1 6.2-5.9 1-0.8 2.2 0 3.7-0.3 0.5-1.8 2.5-3.4 4.4-2.9 0.8 0.2 2.4-1.9 2.9-2.1 0.8-0.3 0.4 0.8 0.4 1.5 1.9-1.5 4.5-2.3 6.9-3.2" fill="black" fill-rule="nonzero" stroke="none" stroke-width="1" stroke-linecap="butt" stroke-linejoin="miter" stroke-miterlimit="10" stroke-dasharray="" stroke-dashoffset="0" font-family="none" font-weight="none" font-size="none" text-anchor="none" style="mix-blend-mode: normal"></path></g><g transform="matrix(1,0,0,1,64,144.5339405760276)"><svg viewBox="0 0 192 70.93211884794482" height="70.93211884794482" width="192"><g><svg viewBox="0 0 192 70.93211884794482" height="70.93211884794482" width="192"><g><svg viewBox="0 0 192 70.93211884794482" height="70.93211884794482" width="192"><g transform="matrix(1,0,0,1,0,43.02524905777523)"><svg viewBox="0 0 192 27.90686979016959" height="27.90686979016959" width="192"><g id="SvgjsG4287"><svg viewBox="0 0 192 27.90686979016959" height="27.90686979016959" width="192" id="SvgjsSvg4286"><g><svg viewBox="0 0 192 27.90686979016959" height="27.90686979016959" width="192"><g transform="matrix(1,0,0,1,0,0)"><svg width="192" viewBox="2.54 -36.55 254.79 37.04" height="27.90686979016959" data-palette-color="url(#509df1b5-6cd6-42bf-b03f-955333fb8d81)"><path d="M35.79-16.6L35.79 0 29.15 0 29.15-16.6Q29.15-17.29 28.89-17.9 28.64-18.51 28.17-18.97 27.71-19.43 27.1-19.69 26.49-19.95 25.81-19.95L25.81-19.95Q25.12-19.95 24.52-19.69 23.93-19.43 23.47-18.97 23.02-18.51 22.77-17.9 22.51-17.29 22.51-16.6L22.51-16.6 22.51 0 15.84 0 15.84-16.6Q15.84-17.29 15.59-17.9 15.33-18.51 14.87-18.97 14.4-19.43 13.79-19.69 13.18-19.95 12.5-19.95L12.5-19.95Q11.82-19.95 11.22-19.69 10.62-19.43 10.17-18.97 9.72-18.51 9.46-17.9 9.2-17.29 9.2-16.6L9.2-16.6 9.2 0 2.54 0 2.54-26.15 4.15-26.15 5.96-24.15Q7.35-25.32 9.02-25.96 10.69-26.61 12.5-26.61L12.5-26.61Q14.33-26.61 16.08-25.93 17.82-25.24 19.14-23.56L19.14-23.56Q19.75-24.39 20.53-24.98 21.31-25.56 22.18-25.93 23.05-26.29 23.97-26.45 24.9-26.61 25.81-26.61L25.81-26.61Q27.88-26.61 29.7-25.83 31.52-25.05 32.87-23.69 34.23-22.34 35.01-20.51 35.79-18.68 35.79-16.6L35.79-16.6ZM65.92-13.31L65.92-13.31Q65.92-10.38 64.87-7.85 63.82-5.32 62.01-3.48 60.2-1.64 57.77-0.57 55.34 0.49 52.56 0.49L52.56 0.49Q49.8 0.49 47.37-0.57 44.94-1.64 43.12-3.48 41.31-5.32 40.26-7.85 39.21-10.38 39.21-13.31L39.21-13.31Q39.21-16.28 40.26-18.82 41.31-21.36 43.12-23.21 44.94-25.05 47.37-26.1 49.8-27.15 52.56-27.15L52.56-27.15Q55.34-27.15 57.77-26.16 60.2-25.17 62.01-23.35 63.82-21.53 64.87-18.98 65.92-16.43 65.92-13.31ZM59.2-13.31L59.2-13.31Q59.2-14.92 58.68-16.22 58.15-17.53 57.25-18.47 56.35-19.41 55.14-19.91 53.93-20.41 52.56-20.41L52.56-20.41Q51.19-20.41 49.99-19.91 48.78-19.41 47.89-18.47 46.99-17.53 46.48-16.22 45.97-14.92 45.97-13.31L45.97-13.31Q45.97-11.79 46.48-10.5 46.99-9.2 47.89-8.25 48.78-7.3 49.99-6.75 51.19-6.2 52.56-6.2L52.56-6.2Q53.93-6.2 55.14-6.71 56.35-7.23 57.25-8.15 58.15-9.08 58.68-10.4 59.2-11.72 59.2-13.31ZM94.87-13.31L94.87-13.31Q94.87-10.38 93.82-7.85 92.77-5.32 90.96-3.48 89.16-1.64 86.73-0.57 84.3 0.49 81.51 0.49L81.51 0.49Q78.75 0.49 76.33-0.57 73.9-1.64 72.08-3.48 70.26-5.32 69.21-7.85 68.16-10.38 68.16-13.31L68.16-13.31Q68.16-16.28 69.21-18.82 70.26-21.36 72.08-23.21 73.9-25.05 76.33-26.1 78.75-27.15 81.51-27.15L81.51-27.15Q84.3-27.15 86.73-26.16 89.16-25.17 90.96-23.35 92.77-21.53 93.82-18.98 94.87-16.43 94.87-13.31ZM88.15-13.31L88.15-13.31Q88.15-14.92 87.63-16.22 87.1-17.53 86.2-18.47 85.3-19.41 84.09-19.91 82.88-20.41 81.51-20.41L81.51-20.41Q80.15-20.41 78.94-19.91 77.73-19.41 76.84-18.47 75.95-17.53 75.43-16.22 74.92-14.92 74.92-13.31L74.92-13.31Q74.92-11.79 75.43-10.5 75.95-9.2 76.84-8.25 77.73-7.3 78.94-6.75 80.15-6.2 81.51-6.2L81.51-6.2Q82.88-6.2 84.09-6.71 85.3-7.23 86.2-8.15 87.1-9.08 87.63-10.4 88.15-11.72 88.15-13.31ZM105.22-14.94L105.22 0 98.55 0 98.55-26.15 100.16-26.15 102.36-23.61Q103.97-25.07 106.01-25.87 108.05-26.66 110.27-26.66L110.27-26.66Q112.66-26.66 114.79-25.74 116.91-24.83 118.5-23.23 120.09-21.63 121-19.49 121.92-17.36 121.92-14.94L121.92-14.94 121.92 0 115.25 0 115.25-14.94Q115.25-15.97 114.86-16.88 114.47-17.8 113.79-18.48 113.1-19.17 112.2-19.56 111.3-19.95 110.27-19.95L110.27-19.95Q109.22-19.95 108.29-19.56 107.37-19.17 106.68-18.48 106-17.8 105.61-16.88 105.22-15.97 105.22-14.94L105.22-14.94ZM152.63-13.31L152.63-13.31Q152.63-10.23 151.58-7.69 150.53-5.15 148.72-3.33 146.91-1.51 144.48-0.51 142.06 0.49 139.27 0.49L139.27 0.49Q136.51 0.49 134.08-0.54 131.66-1.56 129.84-3.39 128.02-5.22 126.97-7.75 125.92-10.28 125.92-13.31L125.92-13.31 125.92-36.55 132.61-36.55 132.61-24.34Q133.14-25.02 133.91-25.56 134.68-26.1 135.57-26.44 136.46-26.78 137.42-26.97 138.37-27.15 139.27-27.15L139.27-27.15Q142.06-27.15 144.48-26.11 146.91-25.07 148.72-23.22 150.53-21.36 151.58-18.84 152.63-16.31 152.63-13.31ZM145.91-13.31L145.91-13.31Q145.91-14.82 145.39-16.13 144.86-17.43 143.96-18.38 143.06-19.34 141.85-19.87 140.64-20.41 139.27-20.41L139.27-20.41Q137.91-20.41 136.7-19.81 135.49-19.21 134.58-18.23 133.68-17.24 133.17-15.95 132.66-14.67 132.66-13.31L132.66-13.31Q132.66-11.79 133.17-10.5 133.68-9.2 134.58-8.25 135.49-7.3 136.7-6.75 137.91-6.2 139.27-6.2L139.27-6.2Q140.64-6.2 141.85-6.75 143.06-7.3 143.96-8.25 144.86-9.2 145.39-10.5 145.91-11.79 145.91-13.31ZM162.98-14.4L162.98 0 156.31 0 156.31-26.15 157.92-26.15 160.12-23.05Q161.73-24.51 163.78-25.31 165.83-26.1 168.03-26.1L168.03-26.1 173.91-26.1 173.91-19.46 168.03-19.46Q166.98-19.46 166.05-19.07 165.12-18.68 164.44-17.99 163.76-17.31 163.37-16.38 162.98-15.45 162.98-14.4L162.98-14.4ZM201.84-26.1L201.84 0 200.23 0 197.64-3.59Q196.69-2.73 195.63-1.99 194.57-1.25 193.39-0.7 192.22-0.15 190.99 0.17 189.76 0.49 188.49 0.49L188.49 0.49Q185.73 0.49 183.3-0.44 180.87-1.37 179.05-3.14 177.23-4.91 176.18-7.47 175.13-10.03 175.13-13.31L175.13-13.31Q175.13-16.36 176.18-18.91 177.23-21.46 179.05-23.29 180.87-25.12 183.3-26.14 185.73-27.15 188.49-27.15L188.49-27.15Q189.76-27.15 191-26.83 192.25-26.51 193.42-25.95 194.59-25.39 195.65-24.63 196.71-23.88 197.64-23L197.64-23 200.23-26.1 201.84-26.1ZM195.13-13.31L195.13-13.31Q195.13-14.67 194.6-15.95 194.08-17.24 193.17-18.23 192.27-19.21 191.06-19.81 189.85-20.41 188.49-20.41L188.49-20.41Q187.12-20.41 185.91-19.95 184.7-19.48 183.81-18.58 182.92-17.68 182.41-16.35 181.89-15.01 181.89-13.31L181.89-13.31Q181.89-11.6 182.41-10.27 182.92-8.94 183.81-8.03 184.7-7.13 185.91-6.67 187.12-6.2 188.49-6.2L188.49-6.2Q189.85-6.2 191.06-6.8 192.27-7.4 193.17-8.39 194.08-9.38 194.6-10.66 195.13-11.94 195.13-13.31ZM229.77-20.95L229.77-20.95 224.88-16.04Q224.52-17.07 223.88-17.88 223.25-18.7 222.46-19.26 221.66-19.82 220.73-20.12 219.81-20.41 218.83-20.41L218.83-20.41Q217.46-20.41 216.25-19.85 215.05-19.29 214.15-18.27 213.26-17.26 212.75-15.87 212.24-14.48 212.24-12.79L212.24-12.79Q212.24-11.43 212.75-10.23 213.26-9.03 214.15-8.13 215.05-7.23 216.25-6.71 217.46-6.2 218.83-6.2L218.83-6.2Q219.81-6.2 220.71-6.47 221.61-6.74 222.41-7.24 223.2-7.74 223.82-8.46 224.45-9.18 224.84-10.06L224.84-10.06 229.72-5.15Q228.79-3.83 227.58-2.78 226.37-1.73 224.97-1 223.57-0.27 222.02 0.11 220.47 0.49 218.83 0.49L218.83 0.49Q216.07 0.49 213.64-0.55 211.21-1.59 209.39-3.39 207.58-5.2 206.53-7.62 205.48-10.03 205.48-12.79L205.48-12.79Q205.48-15.8 206.53-18.41 207.58-21.02 209.39-22.96 211.21-24.9 213.64-26.03 216.07-27.15 218.83-27.15L218.83-27.15Q220.47-27.15 222.04-26.73 223.62-26.32 225.04-25.52 226.47-24.73 227.68-23.58 228.89-22.44 229.77-20.95ZM239.73-3.34L239.73 0 233.01 0 233.01-36.55 239.73-36.55 239.73-13.5 249.66-26.1 257.33-26.1 248.66-15.21 257.33 0 249.66 0 244.36-9.5 239.73-3.34Z" opacity="1" transform="matrix(1,0,0,1,0,0)" fill="black" class="wordmark-text-0" id="SvgjsPath4285"></path></svg></g></svg></g></svg></g></svg></g><g transform="matrix(1,0,0,1,53.25990473207951,0)"><svg viewBox="0 0 85.48019053584098 38.95296699051452" height="38.95296699051452" width="85.48019053584098"><g><svg xmlns="http://www.w3.org/2000/svg" xmlns:xlink="http://www.w3.org/1999/xlink" version="1.1" x="0" y="0" viewBox="5 29.49387475885969 90 41.012625348283166" enable-background="new 0 0 100 100" xml:space="preserve" height="38.95296699051452" width="85.48019053584098" class="icon-icon-0" data-fill-palette-color="accent" id="SvgjsSvg4284"><g fill="black"><path d="M23.943 30.807L5 50.001l18.942 19.192c1.728 1.751 4.53 1.751 6.258 0.002 1.729-1.75 1.73-4.587 0.002-6.338L18.193 50.695l-3.624 2.289 15.634-15.841c0.864-0.875 1.295-2.021 1.295-3.168 0-1.147-0.433-2.295-1.297-3.17C28.473 29.056 25.671 29.057 23.943 30.807z" fill="black"></path><path d="M76.057 30.808L95 50.001 76.058 69.193c-1.728 1.751-4.53 1.751-6.258 0.002-1.729-1.75-1.73-4.587-0.002-6.338l12.009-12.161 3.624 2.289L69.796 37.144c-0.864-0.875-1.295-2.021-1.295-3.168 0-1.147 0.433-2.295 1.297-3.17C71.527 29.056 74.329 29.057 76.057 30.808z" fill="black"></path><path d="M60.899 32.352c-0.419-1.068-1.241-1.978-2.366-2.476-2.249-0.997-4.857 0.028-5.825 2.288l-13.82 32.062c-0.484 1.13-0.467 2.355-0.048 3.422 0.419 1.068 1.241 1.978 2.366 2.476 2.249 0.997 4.857-0.028 5.825-2.288l13.82-32.062C61.335 34.644 61.318 33.419 60.899 32.352z" fill="black"></path></g></svg></g></svg></g><g></g></svg></g></svg></g></svg></g></svg></g><defs><mask></mask></defs></svg><rect width="320" height="360" fill="black" stroke="none" visibility="hidden"></rect></g></mask><mask><g id="SvgjsG4283"><svg viewBox="0 0 320 360" height="360" width="320"><g><svg></svg></g><g><svg viewBox="0 0 320 360" height="360" width="320"><g><path transform="translate(-74.99272,-51.79039) scale(4.65793,4.65793)" d="M20.6 59.9l0.8 1-0.4-1.3c-0.1-0.6-0.8 0.1-0.4 0.3M21.5 59.3c0.3 0.5 0.6 1 0.6 1.5 0 0.7 0.6 1 1.1 1.2-0.7-0.8-1.1-3-1.7-2.7M59.9 16.9c1.7 0 3.3-0.2 5.1 0.2 4.4 1.1 8.1 3.3 10.6 6.4l7 11.2c0.3 2.8 0.9 5.9 0.8 9.3 0.7 0 0.6-1 1.4-1.2-0.8 2-1.2 4.5-1.4 7.4-0.5-1.6 0-4 0.1-5.3-0.7 1.1-1.1 0.3-1.1-0.2 0.1-0.8-0.3-0.7-0.6-1-1.1-1-1.8-2.1-2.6-3.8 0.5-1.3 0.6-3.2-1-4.2-0.5-0.3-1.1-0.8-1.4-1.6-0.4-1.1-1.1-2.4-0.9-4.1 0.1-0.5-1.5 1.1-2.4 0.4-3.9-2.7-7.8-5.8-12.5-8.4-2.5 0-4.3-0.9-5.2-2-0.8-1-0.2-2.3 1-2.4 0.7 0 1.5-0.2 2.1 0.2 0.1-0.4 0.5-0.9 1-0.9M50 14.6l0.2 0.1c1 0.2 1.5 1.6 2.6 1.1 0 0.7 0.1 1.4-0.1 1.9-0.3 0.8-1.2 0.8-1.9 0.8-6.7-0.4-10.6 2.4-14.7 4.8-1.1 0.7-2.3 1.2-3.2 2.1-4.3 4-9 7.7-10.1 15.1l-0.9 8.2c-0.1 0.9-1.1 1.8-0.9 2.9l0.7 4.9c-0.7-0.7-1.1 0.2-0.9 0.6 0.1 0.3 0.5 1.3 1.1 0.4 0.8 1.5 1.6 4.4 2.7 5.7 3.4 4 7.8 7.6 11.4 11.2 0.9-0.2 1.6-0.2 1.8-0.8 0.3 0.6-0.3 1.2-0.8 1.3 1.6 1 3.4 1.9 5.8 2.1 3.1 0.2 6 0.7 8.7 1.4 1.4-0.4 2.8-0.6 4.3-0.7 0.5 0 0.8-0.8 1.4-1l0.1-1c0.6 0.9 0.5-0.3 0.1-0.9 0.7 0.6 0.9 1.1 1.2 1.5 0-0.3 0.8-1.4 0.8-0.1l0.2-1.3c0.3-0.2 0.4 1.1 0.7 0.2 0.3-0.9 0.9-0.2 1.5-0.5-0.2 0.4-0.1 1.2 0.6 0.7l0.8-0.7c0.5 1.2 1.3 0.7 1.7 0.5 4.4-2.8 8.8-6.1 13-9.4l-0.1 1.3 0.5-1.6c0.5 0.5 0.9 0.1 1.1-0.2 0.6-1 1.4-2 2.7-2.9-1.6 4.3-3.5 7.7-5.9 10.5l-1 1.2c0 0.7-0.2 1.6-1 1.7-0.4 0.1-1.2-0.2-1.8 0.4-0.3 0.4 0.7 1.2-0.1 0.6-0.7-0.5-1.4 0-2.2 0.2-0.6 0.2 0.4 0.8 0.6 1.2 0.2 0.4 0.4 0.8 0.3 1.3l-1.1-1.2c-1.3 0.7-2.1 2-3.2 3-0.5 0.4-0.3 1.1-0.3 1.7-0.7 0-1.5-0.2-1.9 0.2-0.3 0.4-0.2 1-0.2 1.6-1-0.1-1.1-1.6-2-1.3-0.9 0.2-1.9 0.3-2.7 0.8 0.6 1.2-1 0.5-0.8 0.7-1.5-0.9-2.8-1.6-4.4-1-3.4-1.1-7.6-0.6-10.7-0.2 0-0.5 0.1-1-0.1-1.1-0.2 0.5-0.8 0.3-0.7 0.3-1.9-1.3-3.8-2.1-5.8-3.2-1.8 0.2-3.5-0.7-4-1.2-1.4-1.3-3-0.6-4.3-0.9-2.8-0.7-3.8-3.6-4.1-5.6-0.2-1-1-1.4-1.3-1.3-1.3-4.2-3.3-8-4.9-11.9-0.4-1-0.3-2-0.3-3.1 0.5 0.2 1 0.1 0.9-0.6-0.5-3.3-1.7-5.8-3-8.2 0.7-3.4 0.8-7.4 2.4-10.4 1.4-2.7 4-4.1 5.8-6.4 0.6-0.8 0.6-1.9 1.2-2.6 2-2 4-4.1 6.2-5.9 1-0.8 2.2 0 3.7-0.3 0.5-1.8 2.5-3.4 4.4-2.9 0.8 0.2 2.4-1.9 2.9-2.1 0.8-0.3 0.4 0.8 0.4 1.5 1.9-1.5 4.5-2.3 6.9-3.2" fill="black" fill-rule="nonzero" stroke="none" stroke-width="1" stroke-linecap="butt" stroke-linejoin="miter" stroke-miterlimit="10" stroke-dasharray="" stroke-dashoffset="0" font-family="none" font-weight="none" font-size="none" text-anchor="none" style="mix-blend-mode: normal"></path></g><g transform="matrix(1,0,0,1,64,144.5339405760276)"><svg viewBox="0 0 192 70.93211884794482" height="70.93211884794482" width="192"><g><svg viewBox="0 0 192 70.93211884794482" height="70.93211884794482" width="192"><g><svg viewBox="0 0 192 70.93211884794482" height="70.93211884794482" width="192"><g transform="matrix(1,0,0,1,0,43.02524905777523)"><svg viewBox="0 0 192 27.90686979016959" height="27.90686979016959" width="192"><g id="SvgjsG4282"><svg viewBox="0 0 192 27.90686979016959" height="27.90686979016959" width="192" id="SvgjsSvg4281"><g><svg viewBox="0 0 192 27.90686979016959" height="27.90686979016959" width="192"><g transform="matrix(1,0,0,1,0,0)"><svg width="192" viewBox="2.54 -36.55 254.79 37.04" height="27.90686979016959" data-palette-color="url(#509df1b5-6cd6-42bf-b03f-955333fb8d81)"></svg></g></svg></g></svg></g></svg></g><g transform="matrix(1,0,0,1,53.25990473207951,0)"><svg viewBox="0 0 85.48019053584098 38.95296699051452" height="38.95296699051452" width="85.48019053584098"><g><svg xmlns="http://www.w3.org/2000/svg" xmlns:xlink="http://www.w3.org/1999/xlink" version="1.1" x="0" y="0" viewBox="5 29.49387475885969 90 41.012625348283166" enable-background="new 0 0 100 100" xml:space="preserve" height="38.95296699051452" width="85.48019053584098" class="icon-icon-0" data-fill-palette-color="accent" id="SvgjsSvg4280"><g fill="black"><path d="M23.943 30.807L5 50.001l18.942 19.192c1.728 1.751 4.53 1.751 6.258 0.002 1.729-1.75 1.73-4.587 0.002-6.338L18.193 50.695l-3.624 2.289 15.634-15.841c0.864-0.875 1.295-2.021 1.295-3.168 0-1.147-0.433-2.295-1.297-3.17C28.473 29.056 25.671 29.057 23.943 30.807z" fill="black"></path><path d="M76.057 30.808L95 50.001 76.058 69.193c-1.728 1.751-4.53 1.751-6.258 0.002-1.729-1.75-1.73-4.587-0.002-6.338l12.009-12.161 3.624 2.289L69.796 37.144c-0.864-0.875-1.295-2.021-1.295-3.168 0-1.147 0.433-2.295 1.297-3.17C71.527 29.056 74.329 29.057 76.057 30.808z" fill="black"></path><path d="M60.899 32.352c-0.419-1.068-1.241-1.978-2.366-2.476-2.249-0.997-4.857 0.028-5.825 2.288l-13.82 32.062c-0.484 1.13-0.467 2.355-0.048 3.422 0.419 1.068 1.241 1.978 2.366 2.476 2.249 0.997 4.857-0.028 5.825-2.288l13.82-32.062C61.335 34.644 61.318 33.419 60.899 32.352z" fill="black"></path></g></svg></g></svg></g><g></g></svg></g></svg></g></svg></g></svg></g><defs><mask></mask></defs><mask><g id="SvgjsG4279"><svg viewBox="0 0 320 360" height="360" width="320"><g><svg></svg></g><g><svg viewBox="0 0 320 360" height="360" width="320"><g><path transform="translate(-74.99272,-51.79039) scale(4.65793,4.65793)" d="M20.6 59.9l0.8 1-0.4-1.3c-0.1-0.6-0.8 0.1-0.4 0.3M21.5 59.3c0.3 0.5 0.6 1 0.6 1.5 0 0.7 0.6 1 1.1 1.2-0.7-0.8-1.1-3-1.7-2.7M59.9 16.9c1.7 0 3.3-0.2 5.1 0.2 4.4 1.1 8.1 3.3 10.6 6.4l7 11.2c0.3 2.8 0.9 5.9 0.8 9.3 0.7 0 0.6-1 1.4-1.2-0.8 2-1.2 4.5-1.4 7.4-0.5-1.6 0-4 0.1-5.3-0.7 1.1-1.1 0.3-1.1-0.2 0.1-0.8-0.3-0.7-0.6-1-1.1-1-1.8-2.1-2.6-3.8 0.5-1.3 0.6-3.2-1-4.2-0.5-0.3-1.1-0.8-1.4-1.6-0.4-1.1-1.1-2.4-0.9-4.1 0.1-0.5-1.5 1.1-2.4 0.4-3.9-2.7-7.8-5.8-12.5-8.4-2.5 0-4.3-0.9-5.2-2-0.8-1-0.2-2.3 1-2.4 0.7 0 1.5-0.2 2.1 0.2 0.1-0.4 0.5-0.9 1-0.9M50 14.6l0.2 0.1c1 0.2 1.5 1.6 2.6 1.1 0 0.7 0.1 1.4-0.1 1.9-0.3 0.8-1.2 0.8-1.9 0.8-6.7-0.4-10.6 2.4-14.7 4.8-1.1 0.7-2.3 1.2-3.2 2.1-4.3 4-9 7.7-10.1 15.1l-0.9 8.2c-0.1 0.9-1.1 1.8-0.9 2.9l0.7 4.9c-0.7-0.7-1.1 0.2-0.9 0.6 0.1 0.3 0.5 1.3 1.1 0.4 0.8 1.5 1.6 4.4 2.7 5.7 3.4 4 7.8 7.6 11.4 11.2 0.9-0.2 1.6-0.2 1.8-0.8 0.3 0.6-0.3 1.2-0.8 1.3 1.6 1 3.4 1.9 5.8 2.1 3.1 0.2 6 0.7 8.7 1.4 1.4-0.4 2.8-0.6 4.3-0.7 0.5 0 0.8-0.8 1.4-1l0.1-1c0.6 0.9 0.5-0.3 0.1-0.9 0.7 0.6 0.9 1.1 1.2 1.5 0-0.3 0.8-1.4 0.8-0.1l0.2-1.3c0.3-0.2 0.4 1.1 0.7 0.2 0.3-0.9 0.9-0.2 1.5-0.5-0.2 0.4-0.1 1.2 0.6 0.7l0.8-0.7c0.5 1.2 1.3 0.7 1.7 0.5 4.4-2.8 8.8-6.1 13-9.4l-0.1 1.3 0.5-1.6c0.5 0.5 0.9 0.1 1.1-0.2 0.6-1 1.4-2 2.7-2.9-1.6 4.3-3.5 7.7-5.9 10.5l-1 1.2c0 0.7-0.2 1.6-1 1.7-0.4 0.1-1.2-0.2-1.8 0.4-0.3 0.4 0.7 1.2-0.1 0.6-0.7-0.5-1.4 0-2.2 0.2-0.6 0.2 0.4 0.8 0.6 1.2 0.2 0.4 0.4 0.8 0.3 1.3l-1.1-1.2c-1.3 0.7-2.1 2-3.2 3-0.5 0.4-0.3 1.1-0.3 1.7-0.7 0-1.5-0.2-1.9 0.2-0.3 0.4-0.2 1-0.2 1.6-1-0.1-1.1-1.6-2-1.3-0.9 0.2-1.9 0.3-2.7 0.8 0.6 1.2-1 0.5-0.8 0.7-1.5-0.9-2.8-1.6-4.4-1-3.4-1.1-7.6-0.6-10.7-0.2 0-0.5 0.1-1-0.1-1.1-0.2 0.5-0.8 0.3-0.7 0.3-1.9-1.3-3.8-2.1-5.8-3.2-1.8 0.2-3.5-0.7-4-1.2-1.4-1.3-3-0.6-4.3-0.9-2.8-0.7-3.8-3.6-4.1-5.6-0.2-1-1-1.4-1.3-1.3-1.3-4.2-3.3-8-4.9-11.9-0.4-1-0.3-2-0.3-3.1 0.5 0.2 1 0.1 0.9-0.6-0.5-3.3-1.7-5.8-3-8.2 0.7-3.4 0.8-7.4 2.4-10.4 1.4-2.7 4-4.1 5.8-6.4 0.6-0.8 0.6-1.9 1.2-2.6 2-2 4-4.1 6.2-5.9 1-0.8 2.2 0 3.7-0.3 0.5-1.8 2.5-3.4 4.4-2.9 0.8 0.2 2.4-1.9 2.9-2.1 0.8-0.3 0.4 0.8 0.4 1.5 1.9-1.5 4.5-2.3 6.9-3.2" fill="black" fill-rule="nonzero" stroke="none" stroke-width="1" stroke-linecap="butt" stroke-linejoin="miter" stroke-miterlimit="10" stroke-dasharray="" stroke-dashoffset="0" font-family="none" font-weight="none" font-size="none" text-anchor="none" style="mix-blend-mode: normal"></path></g><g transform="matrix(1,0,0,1,64,144.5339405760276)"><svg viewBox="0 0 192 70.93211884794482" height="70.93211884794482" width="192"><g><svg viewBox="0 0 192 70.93211884794482" height="70.93211884794482" width="192"><g><svg viewBox="0 0 192 70.93211884794482" height="70.93211884794482" width="192"><g transform="matrix(1,0,0,1,0,43.02524905777523)"><svg viewBox="0 0 192 27.90686979016959" height="27.90686979016959" width="192"><g id="SvgjsG4278"><svg viewBox="0 0 192 27.90686979016959" height="27.90686979016959" width="192" id="SvgjsSvg4277"><g><svg viewBox="0 0 192 27.90686979016959" height="27.90686979016959" width="192"><g transform="matrix(1,0,0,1,0,0)"><svg width="192" viewBox="2.54 -36.55 254.79 37.04" height="27.90686979016959" data-palette-color="url(#509df1b5-6cd6-42bf-b03f-955333fb8d81)"><path d="M35.79-16.6L35.79 0 29.15 0 29.15-16.6Q29.15-17.29 28.89-17.9 28.64-18.51 28.17-18.97 27.71-19.43 27.1-19.69 26.49-19.95 25.81-19.95L25.81-19.95Q25.12-19.95 24.52-19.69 23.93-19.43 23.47-18.97 23.02-18.51 22.77-17.9 22.51-17.29 22.51-16.6L22.51-16.6 22.51 0 15.84 0 15.84-16.6Q15.84-17.29 15.59-17.9 15.33-18.51 14.87-18.97 14.4-19.43 13.79-19.69 13.18-19.95 12.5-19.95L12.5-19.95Q11.82-19.95 11.22-19.69 10.62-19.43 10.17-18.97 9.72-18.51 9.46-17.9 9.2-17.29 9.2-16.6L9.2-16.6 9.2 0 2.54 0 2.54-26.15 4.15-26.15 5.96-24.15Q7.35-25.32 9.02-25.96 10.69-26.61 12.5-26.61L12.5-26.61Q14.33-26.61 16.08-25.93 17.82-25.24 19.14-23.56L19.14-23.56Q19.75-24.39 20.53-24.98 21.31-25.56 22.18-25.93 23.05-26.29 23.97-26.45 24.9-26.61 25.81-26.61L25.81-26.61Q27.88-26.61 29.7-25.83 31.52-25.05 32.87-23.69 34.23-22.34 35.01-20.51 35.79-18.68 35.79-16.6L35.79-16.6ZM65.92-13.31L65.92-13.31Q65.92-10.38 64.87-7.85 63.82-5.32 62.01-3.48 60.2-1.64 57.77-0.57 55.34 0.49 52.56 0.49L52.56 0.49Q49.8 0.49 47.37-0.57 44.94-1.64 43.12-3.48 41.31-5.32 40.26-7.85 39.21-10.38 39.21-13.31L39.21-13.31Q39.21-16.28 40.26-18.82 41.31-21.36 43.12-23.21 44.94-25.05 47.37-26.1 49.8-27.15 52.56-27.15L52.56-27.15Q55.34-27.15 57.77-26.16 60.2-25.17 62.01-23.35 63.82-21.53 64.87-18.98 65.92-16.43 65.92-13.31ZM59.2-13.31L59.2-13.31Q59.2-14.92 58.68-16.22 58.15-17.53 57.25-18.47 56.35-19.41 55.14-19.91 53.93-20.41 52.56-20.41L52.56-20.41Q51.19-20.41 49.99-19.91 48.78-19.41 47.89-18.47 46.99-17.53 46.48-16.22 45.97-14.92 45.97-13.31L45.97-13.31Q45.97-11.79 46.48-10.5 46.99-9.2 47.89-8.25 48.78-7.3 49.99-6.75 51.19-6.2 52.56-6.2L52.56-6.2Q53.93-6.2 55.14-6.71 56.35-7.23 57.25-8.15 58.15-9.08 58.68-10.4 59.2-11.72 59.2-13.31ZM94.87-13.31L94.87-13.31Q94.87-10.38 93.82-7.85 92.77-5.32 90.96-3.48 89.16-1.64 86.73-0.57 84.3 0.49 81.51 0.49L81.51 0.49Q78.75 0.49 76.33-0.57 73.9-1.64 72.08-3.48 70.26-5.32 69.21-7.85 68.16-10.38 68.16-13.31L68.16-13.31Q68.16-16.28 69.21-18.82 70.26-21.36 72.08-23.21 73.9-25.05 76.33-26.1 78.75-27.15 81.51-27.15L81.51-27.15Q84.3-27.15 86.73-26.16 89.16-25.17 90.96-23.35 92.77-21.53 93.82-18.98 94.87-16.43 94.87-13.31ZM88.15-13.31L88.15-13.31Q88.15-14.92 87.63-16.22 87.1-17.53 86.2-18.47 85.3-19.41 84.09-19.91 82.88-20.41 81.51-20.41L81.51-20.41Q80.15-20.41 78.94-19.91 77.73-19.41 76.84-18.47 75.95-17.53 75.43-16.22 74.92-14.92 74.92-13.31L74.92-13.31Q74.92-11.79 75.43-10.5 75.95-9.2 76.84-8.25 77.73-7.3 78.94-6.75 80.15-6.2 81.51-6.2L81.51-6.2Q82.88-6.2 84.09-6.71 85.3-7.23 86.2-8.15 87.1-9.08 87.63-10.4 88.15-11.72 88.15-13.31ZM105.22-14.94L105.22 0 98.55 0 98.55-26.15 100.16-26.15 102.36-23.61Q103.97-25.07 106.01-25.87 108.05-26.66 110.27-26.66L110.27-26.66Q112.66-26.66 114.79-25.74 116.91-24.83 118.5-23.23 120.09-21.63 121-19.49 121.92-17.36 121.92-14.94L121.92-14.94 121.92 0 115.25 0 115.25-14.94Q115.25-15.97 114.86-16.88 114.47-17.8 113.79-18.48 113.1-19.17 112.2-19.56 111.3-19.95 110.27-19.95L110.27-19.95Q109.22-19.95 108.29-19.56 107.37-19.17 106.68-18.48 106-17.8 105.61-16.88 105.22-15.97 105.22-14.94L105.22-14.94ZM152.63-13.31L152.63-13.31Q152.63-10.23 151.58-7.69 150.53-5.15 148.72-3.33 146.91-1.51 144.48-0.51 142.06 0.49 139.27 0.49L139.27 0.49Q136.51 0.49 134.08-0.54 131.66-1.56 129.84-3.39 128.02-5.22 126.97-7.75 125.92-10.28 125.92-13.31L125.92-13.31 125.92-36.55 132.61-36.55 132.61-24.34Q133.14-25.02 133.91-25.56 134.68-26.1 135.57-26.44 136.46-26.78 137.42-26.97 138.37-27.15 139.27-27.15L139.27-27.15Q142.06-27.15 144.48-26.11 146.91-25.07 148.72-23.22 150.53-21.36 151.58-18.84 152.63-16.31 152.63-13.31ZM145.91-13.31L145.91-13.31Q145.91-14.82 145.39-16.13 144.86-17.43 143.96-18.38 143.06-19.34 141.85-19.87 140.64-20.41 139.27-20.41L139.27-20.41Q137.91-20.41 136.7-19.81 135.49-19.21 134.58-18.23 133.68-17.24 133.17-15.95 132.66-14.67 132.66-13.31L132.66-13.31Q132.66-11.79 133.17-10.5 133.68-9.2 134.58-8.25 135.49-7.3 136.7-6.75 137.91-6.2 139.27-6.2L139.27-6.2Q140.64-6.2 141.85-6.75 143.06-7.3 143.96-8.25 144.86-9.2 145.39-10.5 145.91-11.79 145.91-13.31ZM162.98-14.4L162.98 0 156.31 0 156.31-26.15 157.92-26.15 160.12-23.05Q161.73-24.51 163.78-25.31 165.83-26.1 168.03-26.1L168.03-26.1 173.91-26.1 173.91-19.46 168.03-19.46Q166.98-19.46 166.05-19.07 165.12-18.68 164.44-17.99 163.76-17.31 163.37-16.38 162.98-15.45 162.98-14.4L162.98-14.4ZM201.84-26.1L201.84 0 200.23 0 197.64-3.59Q196.69-2.73 195.63-1.99 194.57-1.25 193.39-0.7 192.22-0.15 190.99 0.17 189.76 0.49 188.49 0.49L188.49 0.49Q185.73 0.49 183.3-0.44 180.87-1.37 179.05-3.14 177.23-4.91 176.18-7.47 175.13-10.03 175.13-13.31L175.13-13.31Q175.13-16.36 176.18-18.91 177.23-21.46 179.05-23.29 180.87-25.12 183.3-26.14 185.73-27.15 188.49-27.15L188.49-27.15Q189.76-27.15 191-26.83 192.25-26.51 193.42-25.95 194.59-25.39 195.65-24.63 196.71-23.88 197.64-23L197.64-23 200.23-26.1 201.84-26.1ZM195.13-13.31L195.13-13.31Q195.13-14.67 194.6-15.95 194.08-17.24 193.17-18.23 192.27-19.21 191.06-19.81 189.85-20.41 188.49-20.41L188.49-20.41Q187.12-20.41 185.91-19.95 184.7-19.48 183.81-18.58 182.92-17.68 182.41-16.35 181.89-15.01 181.89-13.31L181.89-13.31Q181.89-11.6 182.41-10.27 182.92-8.94 183.81-8.03 184.7-7.13 185.91-6.67 187.12-6.2 188.49-6.2L188.49-6.2Q189.85-6.2 191.06-6.8 192.27-7.4 193.17-8.39 194.08-9.38 194.6-10.66 195.13-11.94 195.13-13.31ZM229.77-20.95L229.77-20.95 224.88-16.04Q224.52-17.07 223.88-17.88 223.25-18.7 222.46-19.26 221.66-19.82 220.73-20.12 219.81-20.41 218.83-20.41L218.83-20.41Q217.46-20.41 216.25-19.85 215.05-19.29 214.15-18.27 213.26-17.26 212.75-15.87 212.24-14.48 212.24-12.79L212.24-12.79Q212.24-11.43 212.75-10.23 213.26-9.03 214.15-8.13 215.05-7.23 216.25-6.71 217.46-6.2 218.83-6.2L218.83-6.2Q219.81-6.2 220.71-6.47 221.61-6.74 222.41-7.24 223.2-7.74 223.82-8.46 224.45-9.18 224.84-10.06L224.84-10.06 229.72-5.15Q228.79-3.83 227.58-2.78 226.37-1.73 224.97-1 223.57-0.27 222.02 0.11 220.47 0.49 218.83 0.49L218.83 0.49Q216.07 0.49 213.64-0.55 211.21-1.59 209.39-3.39 207.58-5.2 206.53-7.62 205.48-10.03 205.48-12.79L205.48-12.79Q205.48-15.8 206.53-18.41 207.58-21.02 209.39-22.96 211.21-24.9 213.64-26.03 216.07-27.15 218.83-27.15L218.83-27.15Q220.47-27.15 222.04-26.73 223.62-26.32 225.04-25.52 226.47-24.73 227.68-23.58 228.89-22.44 229.77-20.95ZM239.73-3.34L239.73 0 233.01 0 233.01-36.55 239.73-36.55 239.73-13.5 249.66-26.1 257.33-26.1 248.66-15.21 257.33 0 249.66 0 244.36-9.5 239.73-3.34Z" opacity="1" transform="matrix(1,0,0,1,0,0)" fill="black" class="wordmark-text-0" id="SvgjsPath4276"></path></svg></g></svg></g></svg></g></svg></g><g transform="matrix(1,0,0,1,53.25990473207951,0)"><svg viewBox="0 0 85.48019053584098 38.95296699051452" height="38.95296699051452" width="85.48019053584098"><g><svg xmlns="http://www.w3.org/2000/svg" xmlns:xlink="http://www.w3.org/1999/xlink" version="1.1" x="0" y="0" viewBox="5 29.49387475885969 90 41.012625348283166" enable-background="new 0 0 100 100" xml:space="preserve" height="38.95296699051452" width="85.48019053584098" class="icon-icon-0" data-fill-palette-color="accent" id="SvgjsSvg4275"><g fill="black"><path d="M23.943 30.807L5 50.001l18.942 19.192c1.728 1.751 4.53 1.751 6.258 0.002 1.729-1.75 1.73-4.587 0.002-6.338L18.193 50.695l-3.624 2.289 15.634-15.841c0.864-0.875 1.295-2.021 1.295-3.168 0-1.147-0.433-2.295-1.297-3.17C28.473 29.056 25.671 29.057 23.943 30.807z" fill="black"></path><path d="M76.057 30.808L95 50.001 76.058 69.193c-1.728 1.751-4.53 1.751-6.258 0.002-1.729-1.75-1.73-4.587-0.002-6.338l12.009-12.161 3.624 2.289L69.796 37.144c-0.864-0.875-1.295-2.021-1.295-3.168 0-1.147 0.433-2.295 1.297-3.17C71.527 29.056 74.329 29.057 76.057 30.808z" fill="black"></path><path d="M60.899 32.352c-0.419-1.068-1.241-1.978-2.366-2.476-2.249-0.997-4.857 0.028-5.825 2.288l-13.82 32.062c-0.484 1.13-0.467 2.355-0.048 3.422 0.419 1.068 1.241 1.978 2.366 2.476 2.249 0.997 4.857-0.028 5.825-2.288l13.82-32.062C61.335 34.644 61.318 33.419 60.899 32.352z" fill="black"></path></g></svg></g></svg></g><g></g></svg></g></svg></g></svg></g></svg></g><defs><mask></mask></defs></svg><rect width="320" height="360" fill="black" stroke="none" visibility="hidden"></rect></g></mask></svg><rect width="320" height="360" fill="black" stroke="none" visibility="hidden"></rect></g></mask></svg><rect width="320" height="360" fill="black" stroke="none" visibility="hidden"></rect></g></mask><linearGradient x1="0.054" x2="0.941" y1="0.5" y2="0.5" id="633d6723-9354-4151-8878-da8db10dda25"><stop stop-color="#0f3054" offset="0"></stop><stop stop-color="#3b8dcb" offset="0.498"></stop><stop stop-color="#0f3054" offset="1"></stop></linearGradient></svg><rect width="320" height="360" fill="none" stroke="none" visibility="hidden"></rect></g></svg></g></svg>