<?xml version="1.0" encoding="utf-8"?><svg xml:space="preserve" viewBox="0 0 100 100" y="0" x="0" xmlns="http://www.w3.org/2000/svg" id="圖層_1" version="1.1" width="200px" height="200px" xmlns:xlink="http://www.w3.org/1999/xlink" style="width:100%;height:100%;background-size:initial;background-repeat:initial;background-position-y:initial;background-position-x:initial;background-origin:initial;background-color:initial;background-clip:initial;background-attachment:initial;animation-play-state:paused" ><g class="ldl-scale" style="transform-origin:50% 50%;transform:rotate(0deg) scale(0.8, 0.8);animation-play-state:paused" ><g style="animation-play-state:paused" ><path fill="#e0e0e0" d="M55.2 45.5L27.7 73l.1.1c2.3 2.3 2.3 6.1 0 8.5-2.3 2.3-6.1 2.3-8.5 0l-.1-.1-4 4 2.5 2.5c2.8 2.8 7.2 2.8 10 0l37-37c-3.6-1-6.9-2.9-9.5-5.5z" style="fill:rgb(224, 224, 224);animation-play-state:paused" ></path>
<path fill="#aaa" d="M19.3 73.1c2.3-2.3 6.1-2.3 8.4-.1l27.6-27.6c-2.6-2.6-4.5-5.9-5.4-9.5L12.8 73c-2.8 2.8-2.8 7.2 0 10l2.5 2.5 4-4a5.8 5.8 0 0 1 0-8.4z" style="fill:rgb(170, 170, 170);animation-play-state:paused" ></path></g>
<g style="animation-play-state:paused" ><path fill="#666" d="M87.7 38.7h-24c-.4 0-.7-.4-.5-.8l.6-1.1-6 6-2.7 2.7c2.6 2.6 5.8 4.5 9.5 5.5 1.7.4 3.5.7 5.3.7 8.1 0 15.2-4.7 18.6-11.5.5-.7 0-1.5-.8-1.5z" style="fill:rgb(102, 102, 102);animation-play-state:paused" ></path>
<path fill="#333" d="M87.7 22.9c.7 0 1.2-.8.9-1.5-1-2-2.4-3.8-3.9-5.4-3.8-3.7-9-6-14.7-6-11.5 0-20.8 9.3-20.8 20.8 0 1.8.2 3.5.7 5.1.9 3.7 2.8 6.9 5.4 9.5l2.7-2.7 6-6 7.4-13.4c.2-.3.5-.5.9-.5h5.6l9.8.1z" style="fill:rgb(51, 51, 51);animation-play-state:paused" ></path></g>
<metadata xmlns:d="https://loading.io/stock/" style="animation-play-state:paused" ><d:name style="animation-play-state:paused" >wrench,tool,machine,tweak,config,setting,nuts,cap,screw,bolt</d:name>
<d:tags style="animation-play-state:paused" >rf,wrench,tool,machine,tweak,config,setting,nuts,cap,screw,bolt</d:tags>
<d:license style="animation-play-state:paused" >by</d:license>
<d:slug style="animation-play-state:paused" >mbzok7</d:slug></metadata></g><!-- generated by https://loading.io/ --></svg>